<?xml version="1.0" encoding="utf-8"?>
<!-- Generator: Adobe Illustrator 24.0.1, SVG Export Plug-In . SVG Version: 6.00 Build 0)  -->
<svg version="1.1" id="Layer_1" xmlns="http://www.w3.org/2000/svg" xmlns:xlink="http://www.w3.org/1999/xlink" x="0px" y="0px"
	 viewBox="0 0 252 65.4" style="enable-background:new 0 0 252 65.4;" xml:space="preserve">
<path d="M143.5,21.5c-1-1-2.5-1.7-4-1.7c-2.8,0-5.2,2.5-5.2,5.3s2.4,5.3,5.3,5.3c1.5,0,2.8-0.6,4-1.7v1.8c-1.1,0.8-2.5,1.2-3.9,1.2
	c-3.6,0-6.7-2.9-6.7-6.6s3-6.7,6.7-6.7c1.5,0,2.7,0.4,3.9,1.2v1.9L143.5,21.5L143.5,21.5z M160.5,25.1c0,3.7-3,6.6-6.7,6.6
	c-3.7,0-6.7-2.9-6.7-6.6c0-3.7,3-6.6,6.7-6.6C157.5,18.6,160.5,21.4,160.5,25.1z M148.5,25.1c0,2.9,2.4,5.3,5.3,5.3
	c2.9,0,5.3-2.5,5.3-5.3c0-2.9-2.4-5.3-5.3-5.3C150.9,19.9,148.5,22.1,148.5,25.1z M203.6,21.5c-1-1-2.5-1.7-4-1.7
	c-2.9,0-5.2,2.5-5.2,5.3s2.4,5.3,5.2,5.3c1.5,0,2.8-0.6,4-1.7v1.8c-1.1,0.8-2.5,1.2-3.9,1.2c-3.6,0-6.7-2.9-6.7-6.6s3-6.7,6.7-6.7
	c1.5,0,2.7,0.4,3.9,1.2C203.6,19.5,203.6,21.5,203.6,21.5z M166,30.1h3.6v1.4h-5V18.7h1.5v11.4H166L166,30.1z M175.2,30.1h3.6v1.4
	h-5V18.7h1.5v11.4H175.2L175.2,30.1z M182.9,18.7h6.6v1.4h-5.2v3.9h5.1v1.4h-5.1v5.1h5.3v1.4H183V18.7H182.9z M211.4,31.5h-1.5V20.1
	h-3.1v-1.4h7.7v1.4h-3.2v11.4L211.4,31.5L211.4,31.5z M219.4,31.5h-1.5V18.7h1.5C219.4,18.7,219.4,31.5,219.4,31.5z M236.7,25.1
	c0,3.7-3,6.6-6.7,6.6s-6.7-2.9-6.7-6.6c0-3.7,3-6.6,6.7-6.6C233.7,18.4,236.7,21.4,236.7,25.1z M224.6,25.1c0,2.9,2.4,5.3,5.3,5.3
	c2.9,0,5.3-2.5,5.3-5.3c0-2.9-2.4-5.3-5.3-5.3C227,19.9,224.6,22.1,224.6,25.1z M240.5,18.1l10,10.6v-10h1.5v13.5l-10-10.5v9.9h-1.5
	V18.1z M16.6,26.3c0,0.9,0,2,0.5,2.8c0.5,0.8,1.7,1.2,2.6,1.2s1.9-0.4,2.5-1.1c0.6-0.8,0.6-1.9,0.6-2.9v-7.7h1.5v8.1
	c0,1.4-0.1,2.5-1.1,3.6c-0.9,0.9-2.2,1.5-3.5,1.5c-1.2,0-2.5-0.4-3.3-1.4c-1.1-1.1-1.2-2.3-1.2-3.7v-8.1h1.5
	C16.8,18.7,16.6,26.3,16.6,26.3z M32.7,31.5h-1.5V20.1H28v-1.4h7.7v1.4h-3.1v11.4C32.6,31.5,32.7,31.5,32.7,31.5z M52,25.1
	c0,3.7-3,6.6-6.7,6.6c-3.7,0-6.7-2.9-6.7-6.6s3-6.6,6.7-6.6C49.1,18.4,52,21.4,52,25.1z M40,25.1c0,2.9,2.4,5.3,5.3,5.3
	c2.9,0,5.3-2.5,5.3-5.3c0-2.9-2.4-5.3-5.3-5.3C42.4,19.9,40,22.1,40,25.1z M100.9,31.5h-1.4V18.7h2.2c1.1,0,2.3,0,3.1,0.6
	c1,0.6,1.5,1.8,1.5,2.9c0,1-0.4,2.2-1.2,2.8c-0.9,0.6-2,0.9-3,0.9h-1v5.5C101.1,31.4,100.9,31.5,100.9,31.5z M100.9,24.5h0.9
	c1.6,0,2.9-0.4,2.9-2.4c0-2.2-1.7-2.3-3.3-2.3h-0.5v4.6H100.9z M118.4,24.5v-5.9h1.5v12.8h-1.5v-5.6h-6.6v5.6h-1.5V18.7h1.5v5.9h6.6
	V24.5z M78.9,31.5h1.7l-3.5-5.9c0.3-0.1,0.6-0.3,0.9-0.5c0.8-0.6,1.2-1.7,1.2-2.8s-0.4-2.3-1.5-2.9c-0.9-0.6-2.2-0.6-3.1-0.6h-2.2
	v12.8h1.5V19.9h0.5c1.7,0,3.3,0.1,3.3,2.3c0,1.8-1.4,2.3-2.8,2.4L78.9,31.5z M68.3,25.1h-5.4c0.5,0.3,1,0.8,1.4,1.4h2.4
	c0,1.1-0.4,2-1.2,2.7c-0.3,0.3-0.8,0.6-1.4,0.9c-0.6,0.3-1.4,0.4-2,0.4c-1.4,0-2.7-0.6-3.6-1.7c-0.9-0.9-1.5-2-1.5-3.3v-0.3
	c0-0.3,0-0.8,0.1-1.1c0.5-2.4,2.6-4.3,5.2-4.3c1.9,0,3.1,0.9,4.3,2.5l1-1c-1.4-1.8-3-2.8-5.3-2.8c-3.6,0-6.4,2.7-6.6,6.1V25
	c0,0.3,0,0.8,0.1,1.1c0.5,3.1,3.2,5.5,6.5,5.5c0.6,0,1.4-0.1,1.9-0.3c0.5-0.2,1-0.4,1.6-0.6c0.4-0.3,0.9-0.6,1.4-1.1
	C68,28.3,68.3,26.8,68.3,25.1z M0,31.5h1.6L3.6,27c2.2,0.5,4,1.7,5.5,3.2c0.4,0.4,0.8,0.9,1.1,1.4h1.6L6,18.1l-3.2,7.4
	c-0.4-0.1-0.9-0.1-1.4-0.2c0.3,0.4,0.5,0.9,0.8,1.5L0,31.5z M4.1,25.8L6,21.4l2.8,6.8C7.4,27.1,5.9,26.3,4.1,25.8z M90,18l-3.2,7.4
	c-0.4-0.1-0.9-0.1-1.4-0.2c0.3,0.4,0.5,0.9,0.8,1.5l-2.2,4.9h1.5l1.9-4.5c2.2,0.5,4,1.7,5.5,3.2c0.4,0.4,0.8,0.9,1.1,1.4h1.6L90,18z
	 M88.1,25.8l1.9-4.4l2.9,6.8C91.5,27.1,89.8,26.3,88.1,25.8z M116.7,46.1c0,2.8-2.3,5-5,5c-2.7,0-5-2.2-5-5c0-2.7,2.3-5,5-5
	C114.5,41.1,116.7,43.4,116.7,46.1z M115.6,46.1c0-2.2-1.6-3.9-3.9-3.9c-2.3,0-3.9,1.7-3.9,3.9s1.7,3.9,3.9,3.9
	C113.8,49.9,115.6,48.2,115.6,46.1z M124.6,50.8h-1.1v-8.3h-2.3v-1.1h5.6v1.1h-2.3V50.8z M132,41.3h5.1v1.1h-3.9v2.7h3.9v1.1h-3.9
	v3.3h4v1.1h-5.1v-9.4L132,41.3L132,41.3z M143.9,49.7h2.9v1.1h-4.1v-9.4h1.2V49.7z M156,43.2c-0.3-0.5-0.8-0.9-1.5-0.9
	c-0.8,0-1.6,0.5-1.6,1.4c0,0.8,0.6,1.1,1.4,1.4l0.6,0.2c1.4,0.5,2.4,1.2,2.4,2.8c0,1.7-1.4,2.9-3,2.9s-2.7-1.1-2.9-2.6l1.2-0.2
	c0,1,0.8,1.8,1.8,1.8c1,0,1.7-0.9,1.7-1.8c0-1-0.8-1.5-1.6-1.8l-0.6-0.2c-1.1-0.4-2-1.1-2-2.4c0-1.6,1.4-2.5,2.8-2.5
	c1,0,1.9,0.5,2.5,1.5L156,43.2L156,43.2z M100.4,41.3v4.2H96v-4.2h-1.3v9.5H96v-4.1h4.4v4.1h1.2v-9.5H100.4z"/>
</svg>
