<svg xmlns="http://www.w3.org/2000/svg" viewBox="0 0 71.8 62.2" xml:space="preserve">
  <path d="M71.7 4.1v-.7c-.4-2.1-2.2-3.4-4-3.4H4C1.8 0 0 1.8 0 4v54.3c0 2.1 1.8 3.9 3.9 3.9H68.3c2-.3 3.4-2 3.4-4.1 0-18 .1-36 0-54zm-2.2 57c-.5.3-1.1.5-1.6.5H4.3c-1.5 0-2.6-.7-3.2-2-.2-.4-.2-.8-.3-1.3V4.1c0-1.5.7-2.5 2-3.1.2-.2.7-.3 1.1-.4h63.6c1.4 0 2.4.5 3.2 1.7.3.5.5 1 .5 1.6V58.1c-.1 1.3-.6 2.3-1.7 3z"/>
  <path d="M32.2 36.9c12.1-1.6 21.9 4.7 26.8 12H12.9c2.3-3.3 5.1-6 8.4-8.1 3.3-2.1 7-3.4 10.9-3.9zM29.3 34.8c-4.6-10.4-9.2-20.7-13.8-31.1h16.6c.1.9.2 1.8.2 2.6.1 1.5.2 3 .4 4.5.1 1.4.2 2.9.3 4.3.1 1.4.2 2.8.4 4.3.1 1.1.2 2.3.3 3.4.1 1.5.3 3 .4 4.4.1 1 .2 2.1.3 3.1l.3 3.6c0 .2-.1.3-.3.3-1.7 0-3.3.3-5 .6h-.1zM3.8 26.1V6.7c0-1.2.8-2.4 1.8-2.8C12.5 14.5 19.5 25 26.4 35.6c-.3.1-.7.2-1 .3-1.7.6-3.4 1.4-5 2.3-.2.1-.3.1-.5 0-5.3-3.9-10.6-7.8-16-11.8 0 0-.1-.1-.1-.3zM40.1 34.4c-.9-.1-1.7-.2-2.6-.3.7-10.1 1.5-20.3 2.2-30.4h16.5L42.7 34.9c-.9-.2-1.7-.3-2.6-.5zM67.8 26c0 .2-.1.4-.3.5-4.6 3.5-9.2 7-13.9 10.5-.6.5-1.3.9-1.9 1.4-.1.1-.2.1-.4 0-1.8-1.1-3.7-2-5.7-2.6 0 0-.1 0-.1-.1C52.4 25.1 59.2 14.5 66 3.9c1.2.6 1.8 1.6 1.8 2.9V26zM55 40.8c4.3-2.2 8.5-4.4 12.9-6.6v14.3c0 .4 0 .4-.4.4h-4.9c-.2 0-.3 0-.4-.2-1.9-3-4.3-5.6-7.1-7.8 0 0-.1 0-.1-.1zM4.1 49c-.2 0-.3 0-.3-.3V34.4c4.3 2.2 8.6 4.3 12.9 6.5-.1.1-.2.1-.2.1-2.8 2.2-5.1 4.8-7.1 7.8-.1.1-.2.2-.4.2H4.1zM8.5 55.1s-.1 0 0 0c.2-.3.6-.5.8-.8.7-1 0-2.4-1.2-2.6-.2 0-.4-.1-.7-.1H4v6.9h4c1 0 1.5-.6 1.7-1.5.1-.9-.3-1.6-1.2-1.9zm-2.6-1.8c0-.1.1-.1.1-.1h1.1c.3 0 .5.3.5.6s-.2.6-.5.6H5.9c-.1-.4-.1-.8 0-1.1zm1.2 3.8h-.5c-.7 0-.7 0-.7-.7 0-.6 0-.6.6-.6h.7c.4.1.6.3.6.7-.1.3-.4.6-.7.6zM22.6 51.7h1.7v6.9h-1.6c-.1 0-.1-.1-.2-.2-.8-1.4-1.8-2.7-2.4-4.2l-.1-.1c.2 1.5 0 2.9.1 4.4h-1.7v-6.6c0-.2.1-.3.3-.3h1.4c.2 0 .3.1.4.2.7 1.1 1.4 2.3 2 3.4 0 .1.1.1.2.3 0-1.2-.1-2.5-.1-3.8zM39 51.8v6.7h-2v-2.4c0-.2 0-.3-.3-.3h-1.4v2.7h-2.1v-6.9h1.9s.1.1.1.2v2.3h1.6l.1-.2v-2.3h1.9l.2.2zM43.9 51.6c-1.4-.1-2.8.5-3.3 2-.2.5-.2 1-.3 1.4.1.5.1.8.2 1.2.3 1.3 1.1 2.2 2.5 2.4s2.5-.1 3.4-1.3c.5-.7.7-1.6.6-2.5-.2-1.5-1-3-3.1-3.2zm.6 4.9c-.1.5-.5.7-.9.7s-.7-.3-.9-.7c-.3-.9-.3-1.8 0-2.8.1-.4.4-.6.8-.6s.7.3.8.7c.1.5.2.9.3 1.4.1.5 0 .9-.1 1.3zM32 58.3c.1.1.1.2.2.3h-2.1c-.1 0-.2-.1-.2-.2-.3-.7-.7-1.4-1-2.2 0-.1-.1-.2-.1-.3-.3.4-.5.7-.7 1.1-.1.1 0 .2 0 .3v1.2h-1.9v-6.9h1.9v2.8h.1l.2-.2c.5-.8 1.1-1.6 1.6-2.4.1-.1.2-.2.4-.2H32c-.6.8-1.1 1.6-1.6 2.3-.1.2-.1.3 0 .5.3 1.3 1 2.6 1.6 3.9zM61.2 56.2c.1.8-.2 1.4-.9 1.9-.8.5-1.7.7-2.6.6-.5 0-1-.2-1.5-.5s-.9-.7-1.1-1.3c0-.1-.1-.2-.1-.3l1.8-.3h.1c.3.8 1 .9 1.7.8.2 0 .4-.1.5-.4 0-.3-.1-.4-.4-.5-.4-.1-.9-.2-1.3-.3l-.9-.3c-.7-.3-1.1-.8-1.2-1.5-.1-.8.2-1.5.9-2 1-.7 2.8-.6 3.8.1.4.3.7.6.8 1.1-.6.2-1.1.3-1.7.5-.2-.5-.7-.7-1.2-.7-.1 0-.3 0-.4.1-.1.1-.2.2-.3.4 0 .1.1.3.2.4.2.1.5.2.8.2.5.1 1 .2 1.5.4 1 .2 1.4.8 1.5 1.6zM64.7 57h3.1v1.6h-5.1v-6.9h5.1v1.5h-2.9c-.2 0-.3.1-.3.3v.8h2.5v1.5h-2.5c.1.4.1.8.1 1.2zM53.8 56.1c.1 1.9-1.1 2.5-2.5 2.6-.6 0-1.2-.1-1.7-.2-.9-.3-1.4-.9-1.5-1.9V51.7h2.1v4.4c0 .3 0 .7.4.9.4.2.8.2 1.2 0 .3-.2.4-.5.4-.8v-4.4h1.6v4.3zM16.7 52v4.2c0 .3 0 .6-.1.9-.2.7-.6 1.2-1.3 1.4-1 .4-2.1.3-3.1-.1-.7-.3-1.1-.8-1.1-1.6v-5h2.1V56.2c0 .8.5 1.2 1.3 1 .4-.1.6-.4.6-.8V51.8h1.6v.2z"/>
</svg>
