<?xml version="1.0" encoding="utf-8"?>
<!-- Generator: Adobe Illustrator 24.0.1, SVG Export Plug-In . SVG Version: 6.00 Build 0)  -->
<svg version="1.1" id="Layer_1" xmlns="http://www.w3.org/2000/svg" xmlns:xlink="http://www.w3.org/1999/xlink" x="0px" y="0px"
	 viewBox="0 0 23 23" style="enable-background:new 0 0 23 23;" xml:space="preserve">
<path d="M11.5,23C11.5,23,11.5,23,11.5,23c-0.1,0-0.2,0-0.3-0.1l-11-7.3c-0.1,0-0.1-0.1-0.1-0.1c0,0,0,0,0,0h0c0,0,0,0,0,0l0,0
	c0,0,0,0,0,0c0,0,0,0,0,0C0,15.4,0,15.3,0,15.2V7.8c0-0.1,0-0.2,0.1-0.3c0,0,0,0,0,0l0,0c0,0,0,0,0,0c0,0,0,0,0,0c0,0,0,0,0,0l0,0
	c0-0.1,0.1-0.1,0.1-0.1l11-7.3C11.3,0,11.4,0,11.5,0c0,0,0,0,0,0c0.1,0,0.2,0,0.3,0.1l11,7.3c0.1,0,0.1,0.1,0.1,0.1c0,0,0,0,0,0
	c0,0,0,0,0,0C23,7.6,23,7.7,23,7.8v7.4c0,0.1,0,0.2-0.1,0.3c0,0,0,0,0,0l0,0c0,0,0,0,0,0c0,0.1-0.1,0.1-0.1,0.1l-11,7.3
	C11.7,23,11.6,23,11.5,23C11.5,23,11.5,23,11.5,23z M12,15.5v6.1l9.6-6.4L17,12.1L12,15.5z M1.4,15.2l9.6,6.4v-6.1l-5-3.4L1.4,15.2z
	 M6.9,11.5l4.6,3.1l4.6-3.1l-4.6-3.1L6.9,11.5z M17.9,11.5l4.1,2.8V8.7L17.9,11.5z M1,8.7v5.5l4.1-2.8L1,8.7z M12,7.5l5,3.4l4.6-3.1
	L12,1.4V7.5z M1.4,7.8L6,10.9l5-3.4V1.4L1.4,7.8z"/>
</svg>
