<?xml version="1.0" encoding="utf-8"?>
<!-- Generator: Adobe Illustrator 24.0.1, SVG Export Plug-In . SVG Version: 6.00 Build 0)  -->
<svg version="1.1" id="Layer_1" xmlns="http://www.w3.org/2000/svg" xmlns:xlink="http://www.w3.org/1999/xlink" x="0px" y="0px"
	 viewBox="0 0 50 50" style="enable-background:new 0 0 50 50;" xml:space="preserve">
<style type="text/css">
	.st0{fill:none;stroke:#000000;stroke-width:2;stroke-linecap:round;stroke-linejoin:round;stroke-miterlimit:10;}
	.st1{fill:none;stroke:#000000;stroke-miterlimit:10;}
</style>
<path d="M36.6,45.1H13.5c-6.9,0-12.6-4.8-12.6-10.7V14.6c0-5.9,5.6-10.7,12.6-10.7h23.2C43.6,4,49.2,8.8,49.2,14.6v19.7
	C49.2,40.2,43.6,45.1,36.6,45.1z M13.5,5.6c-5.9,0-10.7,4-10.7,9v19.7c0,5,4.8,9,10.6,9h23.2c5.9,0,10.6-4.1,10.6-9V14.6
	c0-5-4.8-9-10.6-9C36.6,5.6,13.5,5.6,13.5,5.6z"/>
<path class="st0" d="M4.3,10.1l19,14.7c1.1,0.8,2.6,0.8,3.6,0l18.8-14.7"/>
<g>
	<line class="st1" x1="-45.1" y1="36.4" x2="-30.7" y2="19.5"/>
	<line class="st1" x1="-21.5" y1="19.5" x2="-7.1" y2="36.4"/>
</g>
</svg>
