<svg xmlns="http://www.w3.org/2000/svg" viewBox="0 0 50 50" xml:space="preserve">
  <path d="M24.8 49.7C11.3 49.7.6 38.6.7 25.1.8 11.9 11.5.8 25.1 1c13.3.2 24 11.2 23.8 24.7-.1 13.2-10.7 24-24.1 24zm-3.4-12.6h-.3c-1.9-.3-3.6-.8-5.2-1.9-1.7-1.2-2.7-2.8-3.1-4.7-.4-2-.3-4 0-6 .2-1.4.7-2.7 1.7-3.6.2-.1.1-.3.1-.5-.6-1.6-.5-3.2 0-4.9.1-.3.3-.5.6-.3.4.1.8.3 1.2.5 1 .6 1.8 1.5 2.5 2.4.2.2.3.3.5.1.6-.4 1.3-.5 2-.7 1.7-.3 3.4-.3 5-.2 1 0 2 .2 2.9.6.3.1.6.5.8.3.3-.1.4-.5.7-.8.9-1 1.8-1.9 3.2-2.3.4-.1.6-.1.8.4.5 1.6.6 3.1-.1 4.7-.1.2-.1.4.1.6.8.7 1.3 1.7 1.5 2.8.4 1.8.5 3.7.4 5.5-.1 1.8-.7 3.4-1.9 4.7-1.6 1.8-3.7 2.7-6 3.1-.3 0-.6.1-.8.1.7 1.1 1 2.2 1 3.4v6.9c1.5-.1 4.2-1.1 6.2-2.2 9-4.9 13.5-15 11.2-25C43.8 8.3 32 .8 20.1 3.4 8.9 5.8 1.1 16.7 2.8 28.6c.8 5.5 3.3 10.2 7.5 13.8 2.8 2.4 6 4.1 9.6 4.9.3.1.4 0 .4-.3v-2.9c0-.3-.1-.4-.4-.3-.6.1-1.3.2-1.9.2-2.1-.1-3.7-.9-4.9-2.7-.4-.6-.6-1.3-1-1.9-.7-1-1.3-2.1-2.4-2.8-.1-.1-.3-.2-.2-.4 0-.2.2-.2.4-.2 1.2-.1 2.3.4 3.1 1.3.4.5.7 1.1 1.1 1.6 1.3 1.7 3.8 2.5 5.8 1.7.3-.1.4-.3.4-.6.1-1 .3-2 1.1-2.9z" fill="#140c0c"/>
</svg>
