<svg xmlns="http://www.w3.org/2000/svg" viewBox="0 0 50 50" xml:space="preserve">
  <path d="M36.4 49.5H13.3C6.4 49.5.7 43.9.7 36.9V13.7C.7 6.8 6.3 1.1 13.3 1.1h23.2C43.4 1.2 49 6.8 49 13.7v23.2c0 6.9-5.6 12.6-12.6 12.6zM13.3 3.1C7.4 3.1 2.6 7.8 2.6 13.7v23.2c0 5.9 4.8 10.6 10.6 10.6h23.2c5.9 0 10.6-4.8 10.6-10.6V13.7c0-5.9-4.8-10.6-10.6-10.6H13.3z"/>
  <path d="M24.8 36.6c-6.2 0-11.3-5-11.3-11.3S18.6 14 24.8 14s11.3 5 11.3 11.3c0 6.2-5 11.3-11.3 11.3zm0-20.6c-5.2 0-9.3 4.2-9.3 9.3s4.2 9.3 9.3 9.3c5.2 0 9.3-4.2 9.3-9.3.1-5.2-4.1-9.3-9.3-9.3zM36.9 14.7c-1.9 0-3.4-1.5-3.4-3.4s1.5-3.4 3.4-3.4 3.4 1.5 3.4 3.4-1.5 3.4-3.4 3.4zm0-4.9c-.8 0-1.4.6-1.4 1.4s.6 1.4 1.4 1.4 1.4-.6 1.4-1.4-.6-1.4-1.4-1.4z"/>
</svg>
