<svg xmlns="http://www.w3.org/2000/svg" viewBox="0 0 50 50" xml:space="preserve">
  <path d="M36.4.2H13.3C6.3.2.7 5.8.7 12.7v23.2c0 6.9 5.6 12.6 12.6 12.6h23.2c6.9 0 12.6-5.6 12.6-12.6V12.7C49 5.8 43.4.2 36.4.2zm10.7 35.7c0 5.9-4.8 10.6-10.6 10.6H13.3c-5.9 0-10.6-4.8-10.6-10.6V12.7c0-5.9 4.8-10.6 10.6-10.6h23.2c5.9 0 10.6 4.8 10.6 10.6v23.2z"/>
  <path d="M15.2 17.5H8.4c-.5 0-1 .4-1 1v22.2c0 .5.4 1 1 1h6.8c.5 0 1-.4 1-1V18.5c0-.5-.5-1-1-1zm-1 22.3H9.4V19.5h4.8v20.3zM34.5 17.5c-2.4.1-4.7.8-6.8 2v-1.1c0-.5-.4-1-1-1H20c-.5 0-1 .4-1 1v22.2c0 .5.4 1 1 1h6.8c.5 0 1-.4 1-1V26.1c.9-.5 1.9-.7 2.9-.8 2.7 0 2.9 1.9 2.9 2.4v13.1c0 .5.4 1 1 1h6.8c.5 0 1-.4 1-1V25.4c.1-2.2-.6-4.3-2.1-5.9-1.7-1.4-3.7-2.1-5.8-2zm5.8 22.3h-4.8V27.6c0-1.5-1-4.3-4.8-4.3-1.5.1-3 .5-4.3 1.2-.3.2-.5.5-.5.9v14.3H21V19.5h4.8v2c0 .5.4 1 1 1 .2 0 .5-.1.6-.2 2-1.7 4.5-2.6 7.1-2.7 1.6-.1 3.1.4 4.3 1.4 1.1 1.2 1.6 2.9 1.5 4.5v14.3zM11.8 6.9c-2.4 0-4.3 1.9-4.3 4.3s1.9 4.3 4.3 4.3 4.3-1.9 4.3-4.3-1.9-4.3-4.3-4.3zm0 6.8c-1.3 0-2.4-1.1-2.4-2.4s1.1-2.4 2.4-2.4 2.4 1.1 2.4 2.4-1.1 2.4-2.4 2.4z"/>
</svg>
