<svg xmlns="http://www.w3.org/2000/svg" version="1.1" id="Layer_1" x="0" y="0" viewBox="0 0 252 95" xml:space="preserve">
  <style>
    .st29{fill:#000}
  </style>
  <path class="st29" d="M223.197 58.669c.313 0 .814.051.814-.362 0-.285-.324-.329-.597-.329h-.652v.691h.435zm1.036 1.271h-.322l-.631-1.021h-.518v1.021h-.253v-2.212h.969c.586 0 .784.219.784.586 0 .433-.302.597-.696.605l.667 1.021zm.779-1.151c0-.984-.784-1.769-1.765-1.769-.989 0-1.777.785-1.777 1.769 0 .993.788 1.778 1.777 1.778a1.76 1.76 0 0 0 1.765-1.778m-3.793 0c0-1.114.908-2.019 2.028-2.019 1.114 0 2.016.905 2.016 2.019 0 1.118-.902 2.03-2.016 2.03a2.032 2.032 0 0 1-2.028-2.03M97.899 47.401l-2.086-.196v-10.81l.089-.154.142-.013 2.108-.205c3.947 0 6.121 2.006 6.121 5.652 0 2.85-1.971 5.726-6.374 5.726m11.343 9.886c-1.068-1.196-2.191-2.879-3.886-5.43l-2.868-4.263.204-.059c3.074-.906 5.056-3.29 5.056-6.079 0-1.473-.595-6.29-8.247-6.29l-3.168.046-1.71.029-4.737-.06s-.436-.009-.641-.011v.643c1.858.035 3.313.133 3.313 2.767v18.461c0 .828-.232 1.468-.694 1.903-.552.517-1.411.743-2.619.696v.626c.079 0 5.123-.068 5.123-.068l4.758.068v-.642c-1.859-.034-3.314-.136-3.314-2.767v-8.602l3.551-.002 1.423 2.266c2.095 3.349 4.258 6.814 6.858 9.751l3.095-.072s2.332.06 2.572.068v-.654c-1.877-.061-3.004-1.124-4.069-2.325M160.864 34.66v.641c.102.003.208.011.208.011 1.2.051 2.557.106 2.557 1.813 0 .932-.432 2.164-.816 3.25l-.318.946-1.649 4.452-1.01 2.62-2.91 7.581-4.987-12.824-.404-1.011c-.723-1.764-1.933-4.72-1.933-5.705 0-.58.427-.98 1.078-1.029l1.063-.083s.219-.009.373-.02v-.642l-2.153.035-2.317.035-4.974-.069v.652c2.283.032 2.96.745 3.813 2.961l1.738 4.434 1.057 2.628v-.002c.003.002 5.927 14.782 6.003 14.975h1.137c.403-1.018 6.89-17.304 6.89-17.304 1.083-2.737 2.343-5.914 2.506-6.214.569-.983 1.336-1.411 2.417-1.459v-.672l-3.233.069s-3.899-.067-4.136-.069M214.43 58.976c-1.561.17-3.18.194-4.839.074-.998-.125-2.321-.486-2.321-2.192V38.069c0-2.119 1.337-2.119 2.631-2.119h.754v-.78c-.273.009-5.001.143-5.001.143l-4.959-.143v.78h.355c.936 0 2.884 0 2.884 2.229v18.717c0 2.593-1.876 2.593-2.884 2.593h-.355v.78c.288-.003 8.443-.145 8.443-.145l9.48.145.529-2.408s.676-3.138.75-3.467h-.751c-.202.734-.532 1.75-1.118 2.554-.762 1.065-2.173 1.861-3.598 2.028M124.666 49.516l3.906-10.159.142-.374 4.095 10.533h-8.143zm14.493 7.172-1.729-4.403-1.069-2.657s-5.927-14.782-6.005-14.973h-1.136c-.402 1.016-6.621 16.608-6.621 16.608-.023.066-2.543 6.485-2.774 6.905-.576.984-1.343 1.416-2.421 1.459v.671c.294-.005 3.233-.068 3.233-.068s3.844.065 4.137.068v-.642c-.103-.005-.21-.008-.21-.008-1.198-.052-2.557-.11-2.557-1.812 0-.935.43-2.162.812-3.249l.322-.95 1.031-2.866h9.119s.409 1.033.409 1.038l.409 1.023c.723 1.761 1.93 4.711 1.93 5.698 0 .572-.429.978-1.081 1.024l-1.033.082-.398.02v.642c.273-.003 4.467-.068 4.467-.068s4.677.065 4.977.068v-.649c-2.288-.036-2.968-.746-3.812-2.961M177.258 49.363c.359-.912 3.824-9.95 3.824-9.95l3.868 9.95h-7.692zm14.264 7.325-1.744-4.449-1.053-2.611s-5.924-14.781-6.003-14.973h-1.135l-6.867 17.237c-1.09 2.766-2.368 5.977-2.531 6.278-.568.983-1.336 1.414-2.414 1.459v.669c.29-.005 3.23-.068 3.23-.068s3.842.066 4.135.068v-.64c-.102-.006-.21-.009-.21-.009-1.197-.051-2.553-.11-2.553-1.814 0-.933.433-2.163.813-3.252l.321-.944 1.032-2.867h9.117s.404 1.033.407 1.036l.416 1.041c.72 1.756 1.919 4.701 1.919 5.682 0 .572-.426.979-1.08 1.026l-1.035.08s-.239.012-.393.022v.64c.267-.002 4.464-.068 4.464-.068s4.678.066 4.976.068v-.649c-2.285-.036-2.964-.747-3.812-2.962M61.171 55.952l-.189-5.711-.283-11.66c0-1.209.224-1.899.753-2.307.485-.373 1.298-.453 2.487-.46v-.644c-.254.004-3.05.071-3.05.071l-2.884-.071c-2.008 4.589-4.271 9.151-6.461 13.565l-3.322 6.769-.143.289s-9.796-20.443-9.88-20.623c-.163.004-2.233.071-2.233.071s-3.438-.067-3.704-.071v.647c1.212.016 1.974.191 2.459.605.522.454.743 1.237.743 2.631l-.247 10.431-.149 4.502c-.144 4.682-1.574 5.61-4.333 5.641v.64l4.684-.069 4.357.069v-.646c-1.35-.008-2.29-.117-2.895-.646-.593-.521-.816-1.439-.816-3.391l.036-2.299.293-13.176.365-.068 1.387 2.759c2.925 5.801 5.943 11.804 8.616 17.797h.522c.206-.531 1.385-3.514 1.385-3.518l8.585-17.836.37.062.256 17.371c0 1.45-.299 2.206-1.028 2.611-.625.33-1.52.342-2.722.342v.635c.115 0 5.159-.068 5.159-.068l5.845.069v-.64c-3.655-.026-3.889-.978-3.963-3.673M78.243 36.143l.064-.001c.027.131.055.266.077.4h-.063a.772.772 0 0 1 .002.069h-.068a38.001 38.001 0 0 1-.012-.468m3.65-6.476c.158.451.473.15.498.845-.231-.054.322.315.095.258-.055.08.09.152.048.13a.925.925 0 0 1 .064.292c.058.174-.064.046 0 .247.004.131.013.026.016.162-.089.002.054.207-.034.21-.325 0-.223.126-.125.224.07.08.014.246-.192.618.041.164-.103.208-.035.325-.167-.019-.129.05-.254.163 0 .022-.068.139-.068.163-.101.103-.184-.169-.196.046.308.251-.026-.044.038.487-.069-.022-.174.162-.239.14-.02.094-.274.169-.293.259-.043.002-.374.572-.419.572-.041.267-.085-.103-.148.111-.089.308.041-.061-.136.151-.099-.016.06-.085-.084-.113.025.066.063.157-.029.161 0 .043-.123-.118-.145.015-.131.005-.115-.059-.136.008.261-.008.045.09.045.158-.045.201-.027-.057-.068.146.068.015-.207-.049-.14-.028 0 .069-.17.101-.167.167-.711.036-.06.633-.239.054-.042.005.081.041.041.041.023.323-.034-.035.037.201-.09-.021-.078.225-.17.205.005.022-.088.049-.088.072-.02 0-.149.064-.175.064 0 .064.081.129.082.194-.023.003-.267-.032-.29-.032.004.045-.114.009-.114.053-.02 0-.266.038-.291.038.004.203-.079.019-.074.223-.062.212-.418.369-.435.416-.087-.018-.22.228-.452.162-.002-.136-.104-.126-.111-.256.022-.003.065-.453.084-.457 0-.042.076-.119.076-.163.02 0-.041-.133-.02-.133-.004-.088.077.037.075-.052.022 0-.04-.13-.018-.13.071-.844.014-.265.071-.205.021-.066-.037.033-.015-.036.019-.002-.025-.04 0-.04 0-.017.015-.031.015-.053.072.049-.093-.13-.026-.081-.005-.091-.096-.072-.096-.163.021 0 .122-.208.143-.208-.027-.224.061-.057.034-.278-.025.001.069-.081.047-.081 0-.042-.047.045-.047 0-.025 0 .086-.066.064-.066-.003-.067.005-.158-.017-.158-.003-.108.754-3.709.747-4.06.106-.071.051-.227.21-.469.069-.101.098-.15.136-.184a.483.483 0 0 1 .295-.145l.563-.002c.139-.1.356-.09.375-.157.198-.005.725-.084.656-.033h1.031zM71.081 75.288c-.088-.015.336.409.248.393 0-.069-.004-.131-.007-.201.065-.025.129-.051.197-.071 0 .043.004.089.004.133.022 0 .044-.005.063-.005.003.067-.508-.311-.505-.249m-.092.065c.025-.208.045-.199.124-.338h.067a12.143 12.143 0 0 1-.079-.332h.069c0 .022 0 .045.004.063h.064c0 .134.006.267.008.401-.071.079-.025 0-.061.134-.063.024-.13.05-.196.072m.703-2.201c.045 0 .09 0 .132-.003 0 .046.005.088.005.133.242.125.403.273.417.662h-.071v-.071c-.115-.094-.142-.245-.212-.395-.159.046-.141.077-.257.143 0-.046-.003-.089-.003-.131.02-.003.044-.003.059-.003-.016-.113-.043-.223-.07-.335m2.313-6.353c.073-.059.01.006.065-.069.068-.002.133-.006.2-.006-.045.134-.08.268-.121.406-.078-.056-.01.011-.07-.063-.022 0-.041 0-.062.003m.331-.81c.089-.003.113.164.113.185-.089.002-.055-.063-.113-.185m.424-1.183c-.049 0-.087 0-.133.005-.058-.261.02-.202.06-.467h.063c.002.134-.063.197-.061.329.077.075.027-.001.071.133m-.142-.698c.055.145.111.37.142.531.075-.079.028 0 .064-.134.024-.036-.315-.014-.359-.136-.024 0 .377 0 .354.002-.045-.174-.072-.191-.201-.263m-.129-.482.081.398c.108-.023.142-.12.254-.146-.054-.256-.027-.252-.335-.252m.374-.021c-.07 0-.13.003-.201.003.02-.133.041-.268.056-.401h.07c.022.131.05.262.075.398m.013-.458c.044 0-.334-.001-.29-.006-.024-.062.374-.128.35-.199-.024 0-.047.005-.069.005.006.067.009.133.009.2m.79-4.146c.048-.001.088-.001.133-.008.002.088.002.179.008.27.067.022.13.037.199.063 0 .022 0 .042.004.065.087-.002-.248-.006-.161-.011-.047-.174.327-.353.279-.531-.15-.06-.194-.105-.402-.123-.052.079.009.015-.061.072-.001.069.001.133.001.203m4.584-14.994c-.047.003-.091.003-.135.005-.025-.159.371-.312.344-.467.02 0 .044 0 .064-.002.051.077-.17.189-.214.331-.023 0-.045 0-.065.002 0 .041.006.089.006.131m-4.325-.716c.077.087.121.096.266.127-.078-.087-.125-.096-.266-.127m4.639-1.61c.15-.017.173-.012.261-.073 0-.021-.424-.044-.424-.064.068-.007.553-.007.622-.007v-.068a1.04 1.04 0 0 0-.398-.056c0 .021-.162.188-.162.208-.022 0 .077-.106.054-.106-.001.069.043.101.047.166m.651-1.142c.007.089.081.15.081.238.128-.004.128.09.261.089-.005-.069-.005-.135-.007-.203-.131-.017-.197-.104-.335-.124m-3.629-1.706c0 .066.002.133.007.199.092.05.081.045.135.13.087-.024.178-.051.261-.076v-.133c-.132-.04-.268-.082-.403-.12m-2.453 11.03c-.422 1.427.369-1.972.273-2.267.013-.248.132-.74.179-.742-.004-.019-.004-.042-.004-.066-.118-.073.122-.108.255-.274-.17-.143-.31-.444-.414-.659.132-.002.264-.005.396-.011.061.069.115.091.202.133-.002-.046-.002-.093-.002-.135h-.069c0-.044 0-.087-.002-.133-.044-.022-.089-.042-.137-.065-.002-.044-.002-.089-.002-.131h-.066c-.051-.13.03-.201.057-.267h-.064v-.067c.084-.005.176-.005.261-.008-.005-.246-.012-.488-.016-.734 0 0-.166-.13-.207-.195.113-.005.221-.007.332-.008 0-.022-.003-.045-.003-.068a.694.694 0 0 1-.276-.259l.138-.001c.059.066.114.087.203.128-.009-.115-.009-.225-.01-.337-.096-.264-.153-.753-.089-.733v-.065c-.077-.076.065-.093.131-.073a2.08 2.08 0 0 1 .109-.738h.068c-.003-.042-.003-.09-.003-.133.021-.003.044-.003.066-.003a98.638 98.638 0 0 1-.084-.802c.044 0 .084 0 .127-.002.024.067.048.131.076.201.019-.002.04-.002.067-.002-.005-.069-.005-.136-.005-.201a.494.494 0 0 1-.14-.199c.063-.001.131-.001.195-.005.025.045-.373.088-.348.132.128.054.435-.111.525-.151-.002-.018-.002-.042-.002-.063-.224.005-.303-.028-.465-.054 0-.048-.003-.091-.003-.136.087-.022.176-.048.261-.076a4.317 4.317 0 0 0-.074-.196c-.165.1.074.029-.184.063.43-.413.118-.298.107-.476a.837.837 0 0 0 .323-.328c-.004-.157-.012-.314-.014-.471.163-.032.241-.066.46-.078 0-.324.13-.248.22-.495.022 0 .032-.052.053-.054.004.157-.025-.082-.022.076h.067v.063c.069 0 .133 0 .2-.005.125-.254.349-.39.652-.286.02-.135.042-.268.055-.404.044 0 .088 0 .133-.004.044.211.916.281 1.121.329v.063h.066c0-.023-.004-.043-.004-.067.139-.1-.092.083-.102-.162.699-.081 1.631.377 1.254.423.106.457.597-.137.674.369l-.067.002c-.091-.103-.145-.113-.331-.122.056.211.549.224.564.529-.178-.028-.156.167-.239.042.066 0-.387-.237-.319-.24v-.067c-.068.002.433.2.371.202-.35.501.05.828-.14.136.2.051.176.039.203.265l-.062.001c0 .025.03.281.053.281.004.155-.123.089-.118.246-.023 0 .092.167.069.167.023.088-.207.063-.082.194-.04.112-.081.069-.03.163-.089 0-.251.341-.341.342-.029.335.096.178.029.507.131.039-.068.028.066.068 0 .021-.205.137-.205.163-.06 0 .074-.003 0 0-.015.132-.004.005-.022.142.022 0 .112.096.131.096 0 .021-.233.039-.233.062.064-.002-.105.091-.105.131-.113-.02-.149.288-.261.268.145.338.224.191.129.425-.238-.066.02.158.025.247l-.066.001c-.003-.088.102.012.098-.076-.303-.026.153.186-.078.266.078.075-.132-.12 0-.082.109.117-.083.028-.081.093-.286 0 .149.152-.024.065-.013.315-.163.309-.472.762-.024 0-.007.237-.029.239 0 .045-.022.143-.022.19-.02.003-.234.268-.157.342.051.066.025.039.078.103-.05.047-.038-.055.006-.032.025.086-.027-.21-.006-.123-.069-.02-.191.478-.215.478.004.113-.194.712-.26.69.003.022-.103.27-.103.292.085.036-.06.119 0 .187-.681.116.415-.079-.193.837.055.173-.219.184-.121.304.023 0-.047.214-.024.214.024.132.047.073.075.209.004.012.113.015.067.133h-.063c-.065.272.216.221-.101.212-.096-.153.227-.212.016-.255 0 .026.003.047.003.072.157.088-.175.225-.145.457.318-.039-.139.189-.088.102-.088.004-.189.169-.181.427.107-.026-.107.355-.107.396-.042.024.072.174.027.199-.021.088-.037.179-.06.266-.02.002-.041.002-.064.005-.088.263-.108.325-.294.512-.095.119.055.276-.09.339.067.086-.005.055.064.14-.02 0 .025 0 0 0 .003.022 0-.022 0 0-.131.005.026.128-.102.133 0 .022-.029.059-.027.079.068 0-.063.11 0 .104.004.092.025.18.027.268-.029.069.065 0 .03.117.066.053-.237-.014-.199.072-.069.002.352.112.288.116-.078-.076-.039.106-.173.067.024.067.084 0 .107.067-.107-.067.044-.003.07-.003 0 .042-.204-.029-.2.016.044.02-.099.084-.055.106 0 .045-.024.138-.024.186.042.022-.2.271-.154.29.143.205.045.16.066.491-.098.041.043.039-.116.057-.057-.085.224-.061.138-.113 0 .044 0 .092.005.134l.068-.002c-.331.127-.435.958-.662.858l-.071.002c.007.175.01.356.014.532.38-.006-.349.123-.041.18 0-.047-.007-.09-.007-.137-.027-.059.236-.029.286-.194.02 0-.377 0-.356-.003l.062-.202.132-.002c.118.195.024.316.037.66-.055.049-.246.448-.204.547.024 0 .043 0 .068-.002v.069c.066-.003.136-.003.201-.008-.17.018-.17.053-.17.097-.089.005-.004.042-.092.042 0 .028 0 .049.002.072.022-.002.044-.002.066-.002 0 .022 0 .044.002.066.065-.003-.074.152-.241.02-.002-.113-.007-.227-.01-.335-.108.026.204.052.093.076l.008.267c-.087 0-.18.005-.265.005-.044.072-.081.14-.125.207.374-.009.281.012.465.185.047.025-.285.153-.285.199.05.02.094.042.136.065 0 .022 0 .043.004.063.088-.001.132.062.066.068.004.063-.136.548-.142.594-.021 0-.174.165-.182.873-.045.001.084.142.04.142-.003-.043-.003-.089-.008-.131-.163-.092-.189-.205-.4-.253 0 .063.424.127.424.196-.02 0-.04.003-.069.003 0 .022.003.045.003.068-.131.002-.263.008-.396.009-.023-.133.37-.264.343-.399-.155.028-.812.056-.114-.088-.006-.066-.006-.131-.006-.201-.216-.043 0-.241-.053-.453l.352.002c0-.068.042.271.04.205.051.301-.118.262-.205.262.001.202-.114.119-.104.321-.023 0-.031-.375-.05-.375-.109.329-.109.458-.043.799.135.051-.16.287-.106.381.003.045.003.092.003.137.184-.051-.18-.139-.027-.211l.002.133c-.074.079-.306.174-.216.193.023.088.277.541.232.545-.081-.148.188-.268.085-.196-.071.076-.022 0-.06.136.069.023-.042.296-.125.207h-.064c0 .045 0 .089.002.134-.159.14.071-.011-.039.082h-.068c.002.068-.347.205-.344.268.306.179-.382.591-.364.591.052.086.067.284.143.33.044 0 .085-.005.133-.005v.068c.064 0 .066.085.003.068 0 .063-.251.367-.431.358.03.236.095.259.145.464l-.066.002v-.068c-.062-.125-.062.134-.062.134.128.082.112.065.139.264-.246-.082-.329-.071-.324.278.14.113-.277.265-.275.531-.075.059-.009-.011-.066.071-.066 0 .293.002.227.003.051.244-.321.489-.27.731.023 0 .039-.003.066-.003v.066c-.044 0-.089.003-.133.006.024.065.048.131.076.196-.137.031.156.054.025.077.012.444.119.54.216.858l-.197.009c-.054-.344-.293-.082-.213-.532-.066.005.288.006.224.009v.065c-.025 0-.046 0-.068.002.007.18-.173.281-.168.458-.187-.045.454.065.401-.119-.091-.074-.101-.119-.14-.261-.067 0-.132.002-.196.003-.065.093.291.184.231.27-.024.005-.045.005-.071.005-.014.091-.458.18-.475.268-.024.003.075.025.055.025-.106.474-.099.961-.082 1.45h.064c0-.026 0-.048-.002-.071.185-.006-.709-.856-.442-.864v.068c.117.117.085.504.085.737h-.064l.002.201c-.041 0-.086 0-.131.005.006.221-.026.299-.056.464-.104.046-.1 1.026-.098 1.069l.352-.062h-.068c-.002-.134-.004-.27-.009-.403h.065v-.068c0-.022-.004-.046-.004-.066a.559.559 0 0 1 .068-.005c.061-.085.047-.114.061-.271h.127c.006.092-.702-.543-.632-.523 0-.046 0-.088-.003-.131.139-.221.351-.009.088-.066-.027.208-.085.332.016.534h.066l.001.134c.026 0 .046-.003.066-.003.101.262-.014.686-.041.872-.202.126-.279.219-.588.285.075.069 0 .026.135.059-.919-1.385.228 1.936.198.854-.231-.056-.174-.134-.405-.188-.054.076.011.008-.064.068.147.228.318.213.35.595-.067-.026-.134-.043-.203-.066-.044-.131-.094-.265-.139-.396-.024.005-.044.005-.068.005-.024-.091.37-.179.348-.265a2.414 2.414 0 0 0-.136-.065 1.84 1.84 0 0 0-.005-.131h-.062c-.024-.068-.052-.133-.075-.199l-.064.002c-.013.17-.138.45-.114.537.019 0 .039-.003.064-.003 0 .045.003.091.003.134h.065l.009.333-.066.003c-.009-.017-.1-.239-.137-.197 0 .023 0 .043.002.069-.217.247.099.569.163.771.007.134-.415.268-.411.399l-.265.009c-.023-.133.374.16.347.026-.047 0-.088.003-.133.003-.02.148-.041.191-.122.271.038.16.071.143.14.267-.17-.023-.207-.106-.333.005v.068c-.104.108-.108.056-.122.273.104.085.115.137.138.325-.066-.018-.131-.04-.199-.059-.021.093-.04.177-.059.271h-.131c-.041.265-.183.461-.245.676-.088.307.135.796-.041 1.006-.077-.089.299-.099.152-.128l.072.199h-.357c.003.043-.264-.27-.264-.228.024-.006.042-.006.068-.006-.017.137.383.273.366.404-.137.003-.265.008-.398.014l-.061.199h-.064c-.037.204-.078.409-.118.608.067.022.13.04.2.065.002.062.002.13.007.196-.185-.04-.15-.014-.204-.196-.046 0-.088.005-.133.009.025.322.075.224.142.46-.087-.02-.087.234-.172.213v.066h-.066c.002.071.007.136.007.204h-.065c0 .048 0 .089.002.134h-.066c.005.201.013.406.017.605-.031.109-.139.345-.182.469-.092-.017-.177-.037-.273-.054 0-.136-.004-.267-.006-.399.023 0 .044-.005.064-.005 0-.045-.004-.088-.004-.134h.068l-.01-.267c.023-.003.047-.003.069-.003.022-.264-.127-.111-.204-.197l.061-.199c.02-.003.043-.003.069-.003 0-.02-.005-.045-.005-.068.068.049.068.08.135.13-.003-.088-.003-.177-.006-.264.024 0 .044-.006.065-.006-.028-.221.121-.352.098-.575-.024 0 .085-.825.174-.804v-.079c.125-.131 4.473-24.405 4.516-24.596"/>
</svg>
