<svg xmlns="http://www.w3.org/2000/svg" viewBox="0 0 565.1 110.7" xml:space="preserve">
  <path d="M107.6 3.1c-2.5 6-4.2 12.9-7.8 17.9 1.6-6.7 4.7-12 6.7-18.5-3.6-4.5-12-2.5-15 1.1-2.4 6.2-4.5 12.6-7.7 17.9C85 15.4 90 10.2 89.3 4.1c-5-.2-9.5 7-15.5 6-4.6 12.1-9.2 24.3-15 35.3h-5c-1.5.5-.6 3.4-1.7 4.3C34.8 48.5 18.2 46.5 0 46v4.3c2.1-.2 4.2.2 6.1 1.1 2.5 8.8 4.7 16 3.3 27.7-.2 2 2.2 1.4 1.7 3.8 0 7.6.2 15.4-.6 22.3 2.3 1.2 6.8.3 10 .5-.1-8.2.3-16.3 1.1-24.4 11.6 5.3 21.9 11.9 33.8 16.8-.7-9.2 3.9-20.6-3.3-22.2-5.8-1.3-14.2 8.3-18.3 1.1-5.5 6-10.6-2.5-17.7-1.6-2.4.4-2.4 5.3-4.4 4.3-1.8-4.7.3-9.7 0-14.1-.4-5.6-4-9.5-3.9-13.6 1.9 1.4 5.3 1.4 6.7 3.3 1.2 5.3-1.8 6.6-1.7 10.9 15.8-.2 30.1 1 46 .5-.7 14.5-.5 29.9-1.7 44H66c.2-2.3-.5-5.6.6-7.1h6.7c.8-5.5-6.2-6.2-6.1-9.2 5.6 1.1 2.7-6 6.7-6.5.4 3-1.8 3.2-1.7 6 5.2 1.4 12.2 1.1 15.5 4.3 2.1.6.9-2 2.8-1.6 7.9 4.9 16 9.6 24.4 14.1 2.6-16.3-15-17.6-21.6-26.7 4.4-9.6 7.4-20.6 12.2-29.9 3.2-.4 5 .6 7.8.5 1.3-5.1-3.8-3.8-6.7-4.9 4.8-12.3 9.9-24.4 14.4-36.9-5.9-1.9-8.2-7.2-13.4-9.7zM12.9 82c2.1 5.3 2 17.9-.6 22.5 1.2-6.7.3-15.1.6-22.5zM2 47.2c1.2.4 3.6-.8 4.1.6 0 2.4-4.1 1-4.1-.6zM93.8 5.1c3.2-1.6 6.9-5.1 10.7-1.6C98.2 18.6 92.1 34 85.9 49.2c-2.9-.8-7.2-.2-10.1-1.1 6.1-14.2 12.2-28.5 18-43zm-3.7 42c.3-5 4.7-10.7 6-16.4 1.1 4.3-4 11.6-6 16.4zm-16.3 0c.3-5 4.2-11.2 6.2-16.4-.5 4.9-4.6 11-6.2 16.4zm1.3-35.4c5.2-.2 8.1-2.9 10.9-5.5C83 19.7 75.4 33.4 70.7 47c-3.1.3-6.3-.1-9.3-1.1 4.9-11.1 9.6-22.4 13.7-34.2zM61.5 49c-2.2 0-4.6.2-6.2-.6 1.5-1 5.4-2.6 6.2.6zm-38.3 2.2c11 1.1 23 1.3 34.2 2.2-1.2 3.2-2.4 6.6-3.4 10-11 .3-20.3-1-31.4-.6-.3-4.3.3-7.8.6-11.6zm31.2 13.5c-6.5.4-17.8.3-23.7 0-1.2-.1-15.4.4-16.4-.6.1.1 12.1-.6 13-.6 10.1 0 17.6.5 27.7.6 5.2.3.4.5-.6.6zm4.4-3.2h-3.5c.9-3.7 3-6.2 3.5-10.2 1.6 2.9-.5 6.6 0 10.2zm3.8 2c-6.2-.7-1.1-7.6-2.5-12.3 2.7.6 4.7 1.7 7.6 2.1-1.9 3.3-5.3 5.3-5.1 10.2zm5 4.4c.9-6.8 4.3-11.2 6.4-16.7 2.9.8 7.1.3 10 1.2-2.5 7.3-5.6 14.2-8.2 21.4-3.5-1.2-5.5-3.9-8.2-5.9zm18.6-14.7H88c-3.6 7.3-6.9 15-10.2 22.5-.4-6.1 6.7-14.7 8.4-22.5zm2 28.7c-3-1.3-6.1-2.5-8.4-4.4 2.7-8.4 6.1-16 9-24.3 2.7.8 6.8.2 9.5 1.1-2.8 9.8-6.6 18.5-10 27.7l-.1-.1zm13.5-32.8c-3.4-.1-6.2-1-9.6-1.1 5.4-14.8 11-29.4 16.6-44 2.3 3 4.3 6.2 8 7.7-4.9 12.5-9.7 25.2-15 37.4zm85.7 22.3v.2c0 .6-.6.9-1.4.9h-9.7c-.8 0-1.4-.3-1.4-.9v-.2c0-1.4 2.7-1.7 2.2-4.3L172 38.3l-11.9 32.6c-.4 1-.8 1.5-1.9 1.5-.9 0-1.8-.6-2-1.5l-12.5-33.6-4.8 29.7c-.4 2.6 2.4 2.9 2.4 4.3v.2c0 .6-.5.9-1.4.9h-6.5c-.8 0-1.3-.3-1.3-.9v-.2c0-1.4 2.1-1.7 2.6-4.3l5.8-34.6c.4-2.5-2.2-2.8-2.2-4.3V28c0-.6.4-1 1.2-1h5.6c1.3-.1 2.4.7 2.8 1.9l11.5 33.2L171 28.9c.3-1.2 1.4-2 2.6-1.9h6c.6 0 1.2.3 1.2.9v.2c0 1.5-2.8 1.9-2.3 4.7l6.4 34.2c.4 2.7 2.5 3 2.5 4.4zm3.6-39.8c0-2.8 2.1-4.8 5.3-4.8s5.2 2 5.2 4.8-2.1 4.8-5.2 4.8-5.3-1.9-5.3-4.8zm11.7 39.7v.3c0 .6-.6 1-1.4 1h-9.7c-.8 0-1.3-.4-1.3-1v-.3c0-1.4 2.4-1.7 2.4-4.2V50.3c0-2.6-2.4-3.3-2.4-4.4v-.2c0-.5.4-.8 1.1-1.2l6.4-3.2c1.5-.7 2.3.1 2.3 1.1v24.7c0 2.5 2.6 2.8 2.6 4.2zM230 46.5c0 2.2-.9 4-3.3 4-4.2 0-2.2-5-6-5-3 0-4.4 3.8-4.4 7.9v13.7c0 2.5 2.9 2.8 2.9 4.2v.2c0 .6-.5.9-1.3.9H208c-.8 0-1.3-.3-1.3-.9v-.2c0-1.4 2.4-1.7 2.4-4.2V50c0-2.6-2.8-2.8-2.8-4.2v-.2c0-.5.5-1 1.1-1.3l6.3-2.9c1.3-.6 1.9 0 1.9 1.1v5c1.4-4.1 4.4-6.3 8.5-6.3 3.7-.1 5.9 2.4 5.9 5.3zm25.3 0c0 2.2-.9 4-3.3 4-4.2 0-2.2-5-6-5-3 0-4.4 3.8-4.4 7.9v13.7c0 2.5 3 2.8 3 4.2v.2c0 .6-.5.9-1.3.9h-9.9c-.8 0-1.4-.3-1.4-.9v-.2c0-1.4 2.4-1.7 2.4-4.2V50c0-2.6-2.8-2.8-2.8-4.2v-.2c0-.5.5-1 1.2-1.3l6.3-2.9c1.4-.6 1.9 0 1.9 1.1v5c1.4-4.1 4.4-6.3 8.5-6.3 3.6-.1 5.7 2.4 5.8 5.3zm16.7-5.4c-8.6-.2-15.7 6.6-15.9 15.2v.5c0 8.5 6.5 16.3 17.4 16.3 9.3 0 15.4-7.1 15.4-15.8s-6.8-16.2-16.9-16.2zm2.4 29.6c-6.5 0-10.8-8.5-10.8-16.4 0-7 2.9-10.8 7.5-10.8 5.9 0 10.2 7.4 10.2 16.4 0 7-2.9 10.8-6.9 10.8zM316 46.5c0 2.2-.9 4-3.3 4-4.2 0-2.2-5-6-5-3 0-4.4 3.8-4.4 7.9v13.7c0 2.5 2.9 2.8 2.9 4.2v.2c0 .6-.5.9-1.3.9H294c-.8 0-1.3-.3-1.3-.9v-.2c0-1.4 2.4-1.7 2.4-4.2V50c0-2.6-2.8-2.8-2.8-4.2v-.2c0-.5.5-1 1.1-1.3l6.3-2.9c1.3-.6 1.9 0 1.9 1.1v5c1.4-4.1 4.4-6.3 8.5-6.3 3.8-.1 5.9 2.4 5.9 5.3zm48 16.3-1.6 8c-.3 1.1-.7 1.7-1.9 1.7h-28.6c-.8 0-1.4-.4-1.4-.9v-.2c0-1.4 2.4-1.7 2.4-4.2V32.4c0-2.6-2.4-2.8-2.4-4.2V28c0-.6.5-.9 1.4-.9h10c.8 0 1.4.3 1.4.9v.2c0 1.5-2.6 1.7-2.6 4.2v33.9c0 1.7.8 3 2.4 3h11.7c4.3 0 5.1-7.7 7.6-7.7h.6c.8 0 1.2.4 1 1.2zm29.8 3.9-1.3-12.3c-.9-8.3-6.1-13.3-14.1-13.3-6.9 0-11.9 3.1-11.9 7.2-.1 1.6 1.1 2.9 2.7 3h.5c4 0 2.8-7.8 8.7-7.8 4.5 0 6 3.8 6.7 11.3l.1 1.3c-2.2-1.5-4.8-2.3-7.4-2.2-6.5 0-11.7 3.3-11.6 9.6s5 9.7 12 9.7c4.5 0 7.4-1.7 8.9-4.1.3 3.1 1.9 3.8 5.1 3.8 2.8 0 5.2-.4 5.2-1.6-.1-1.7-3.2-.4-3.6-4.6zm-13.6 4c-4 0-6.5-3.8-6.5-8.1 0-3.8 2.5-6.3 6-6.3s5.8 2.3 6.1 6l.2 2c.3 3.2-2 6.1-5.2 6.4h-.6zm52.3.7v.2c0 .6-.5.9-1.1.9H421c-.6 0-1-.4-1.1-.9v-.2c0-1.4 2.4-1.7 1.2-3.1l-8.2-11-4.4 4v5.8c0 2.5 2.6 2.7 2.6 4.2v.2c0 .6-.6 1-1.4 1H400c-.8 0-1.4-.4-1.4-1v-.2c0-1.5 2.4-1.7 2.4-4.2V33.4c0-2.7-2.7-3.2-2.7-4.4v-.2c0-.6.4-.8 1.1-1.2l6.8-3.2c1.4-.6 2.3.1 2.3 1V57L420 47c1.8-1.5-1.5-2.8-1.5-4.2v-.2c0-.6.5-1 1.1-1h8.2c.6 0 1.1.3 1.1.9v.2c0 1.4-2.8 2.2-5 4.2l-6.3 5.8L429 68.2c1.3 1.6 3.5 1.9 3.5 3.2zm24.7-8.3c-1.6 3-4.8 4.8-8.2 4.7-4.5 0-7.8-2.7-9.4-7l15.5-5.7c2-.5 3.4-2.4 3.3-4.5 0-4.5-3.7-9.4-12-9.4-8.5 0-15.3 6.6-15.3 15.8 0 9.9 6.6 16.3 15.2 16.3 8.1 0 12.4-5.6 13-9.4 0-1.5-1.4-1.7-2.1-.8zM438.5 54c0-6.2 2.6-10.4 6.6-10.4 3.7 0 6.1 4.6 6.1 7.2.1 1.2-.6 2.3-1.7 2.7l-10.6 4.6c-.3-1.4-.4-2.7-.4-4.1zm50.8-26.1v.2c0 1.4-2.6 1.7-2.6 4.2v34.9c0 2.5 2.6 2.8 2.6 4.2v.2c0 .6-.5.9-1.3.9h-10c-.8 0-1.3-.3-1.3-.9v-.2c0-1.3 2.4-1.7 2.4-4.2V32.4c0-2.5-2.4-2.8-2.4-4.2V28c0-.6.5-.9 1.3-.9h10c.8-.1 1.3.3 1.3.8zm38.8 43.5v.2c0 .6-.6 1-1.4 1h-9.3c-.9 0-1.4-.4-1.4-1v-.2c0-1.4 2.4-1.7 2.3-4.2l-.6-12.4c-.3-7.3-2.8-10.6-6.7-10.6-4.1 0-6.7 3.3-6.7 7.9v15c0 2.5 2.6 2.8 2.6 4.2v.2c0 .6-.5 1-1.4 1h-9.9c-.8 0-1.3-.4-1.3-1v-.2c0-1.4 2.6-1.7 2.6-4.2V50c0-2.8-2.9-2.9-2.9-4.3v-.2c0-.5.5-.8 1.2-1.2l6.2-3c1.3-.7 2 .1 2 1.2v4.2c1.9-3.6 5.7-5.7 9.7-5.6 6 0 11.5 3.8 12.2 13.9l.8 12.1c-.1 2.6 2 2.9 2 4.3zm37 0v.2c0 .6-.6 1-1.4 1h-9.3c-.9 0-1.4-.4-1.4-1v-.2c0-1.4 2.4-1.7 2.3-4.2l-.6-12.4c-.3-7.3-2.8-10.6-6.7-10.6-4.1 0-6.7 3.3-6.7 7.9v15c0 2.5 2.6 2.8 2.6 4.2v.2c0 .6-.5 1-1.4 1h-9.9c-.8 0-1.3-.4-1.3-1v-.2c0-1.4 2.6-1.7 2.6-4.2V50c0-2.8-2.9-2.9-2.9-4.3v-.2c0-.5.5-.8 1.2-1.2l6.2-3c1.3-.7 2 .1 2 1.2v4.2c1.9-3.6 5.7-5.7 9.7-5.6 6 0 11.5 3.8 12.2 13.9l.8 12.1c-.1 2.6 2 2.9 2 4.3z"/>
</svg>
