<svg xmlns="http://www.w3.org/2000/svg" viewBox="0 0 207.9 59.7" xml:space="preserve">
  <path d="M63.9 25.7c-1.8 0-2-.4-2-2.6V22h1.3c2.8 0 4.2-1.4 4.2-3.1 0-1.7-1.5-3.1-4.2-3.1h-5.5v.6c1.8 0 2 .4 2 2.6v4c0 2.2-.3 2.6-2 2.6v.6H64c-.1.1-.1-.5-.1-.5zm-2.1-8.9h1.3c1.4 0 2 1 2 2.1s-.6 2.1-2 2.1h-1.3v-4.2zm17.3 6.8-3.8-8.2h-.6l-3.8 8.2c-.8 1.7-1.1 2.1-2.6 2.1v.6h5v-.6c-2 0-2-.5-1.4-1.8l.5-1h4.1l.5 1c.6 1.3.4 1.8-1.4 1.8v.6h6.1v-.6c-1.5 0-1.8-.4-2.6-2.1zM72.9 22l1.6-3.4L76 22h-3.1zm10.5-.9c0-3.1 2.7-5.6 6-5.6 1.2 0 2.6.6 3.4 1.5.2-.3.3-.7.4-1.1h.6v4.3h-.6c-.5-2.3-1.8-3.7-3.7-3.7-2.8 0-3.6 2.6-3.6 4.7 0 2 .8 4.7 3.6 4.7 1.9 0 3.2-1.4 3.7-3.7h.6v4.3h-.6c-.1-.4-.3-.9-.4-1.1-.8.8-2.2 1.5-3.4 1.5-3.3-.1-6-2.7-6-5.8zm20 5.2h-6.3v-.6c1.8 0 2-.4 2-2.6v-4c0-2.2-.3-2.6-2-2.6v-.6h6.3v.6c-1.8 0-2 .4-2 2.6v4c0 2.2.3 2.6 2 2.6v.6zm9.2 0h-6.3v-.6c1.8 0 2-.4 2-2.6v-4c0-2.2-.3-2.6-2-2.6v-.6h9.6l.3 3h-.5l-.2-.6c-.3-1-.6-1.4-2.9-1.4h-2.1v3.5c2.5 0 2.6-.2 2.6-1.9h.6v4.7h-.6c0-1.6-.2-1.9-2.6-1.9v1.8c0 2.2.3 2.6 2 2.6v.6zm6.2-10.4h6.3v.6c-1.8 0-2 .4-2 2.6v4c0 2.2.3 2.6 2 2.6v.6h-6.3v-.6c1.8 0 2-.4 2-2.6v-4c0-2.2-.3-2.6-2-2.6v-.6zm18.7 0h.6v4.3h-.6c-.5-2.3-1.8-3.7-3.7-3.7-2.8 0-3.6 2.6-3.6 4.7 0 2 .8 4.7 3.6 4.7 1.9 0 3.2-1.4 3.7-3.7h.6v4.3h-.6c-.1-.4-.3-.9-.4-1.1-.8.8-2.2 1.5-3.4 1.5-3.3 0-6-2.5-6-5.7 0-3.1 2.7-5.6 6-5.6 1.2 0 2.6.6 3.4 1.5.2-.4.3-.9.4-1.2zM66.1 38.1c.6-.5.9-1.2.9-2 0-1.5-1.3-2.7-3.8-2.7h-5.6v.6c1.8 0 2 .4 2 2.6v4c0 2.2-.3 2.6-2 2.6v.6h6.1c2.8 0 4.2-1.4 4.2-3 .1-1.2-.6-2.2-1.8-2.7zm-4.3-3.8h1.3c1.2 0 1.7.8 1.7 1.8 0 .9-.5 1.7-1.7 1.7h-1.3v-3.5zm1.9 8.5h-.4c-1.3 0-1.4-.3-1.4-1.6v-2.4h1.9c1.4 0 2 .9 2 2-.1 1.1-.7 2-2.1 2zm16.5-1.9h.5l-.2 3h-9.9v-.6c1.8 0 2-.4 2-2.6v-4c0-2.2-.3-2.6-2-2.6v-.6h9.3l.2 3h-.5l-.2-.6c-.3-1-.6-1.4-2.9-1.4h-1.7V38c2.5 0 2.6-.2 2.6-1.9h.6v4.7h-.6c0-1.6-.2-1.9-2.6-1.9v1.4c0 2.2.3 2.6 1.9 2.6h.4c2.2 0 2.6-.4 2.9-1.4l.2-.6zm12.7.2-3.8-8.2h-.6l-3.8 8.2c-.8 1.7-1.1 2.1-2.6 2.1v.6h5v-.6c-2 0-2-.5-1.4-1.8l.5-1h4.1l.5 1c.6 1.3.4 1.8-1.4 1.8v.6h6.1v-.6c-1.5 0-1.8-.4-2.6-2.1zm-6.2-1.6 1.6-3.4 1.6 3.4h-3.2zm19.8-6.2h.6v4.3h-.6c-.5-2.3-1.8-3.7-3.7-3.7-2.8 0-3.6 2.6-3.6 4.7s.8 4.7 3.6 4.7c1.9 0 3.2-1.4 3.7-3.7h.6v4.3h-.6c-.1-.4-.3-.9-.4-1.1-.8.8-2.2 1.5-3.4 1.5-3.3 0-6-2.5-6-5.7 0-3.1 2.7-5.6 6-5.6 1.2 0 2.6.6 3.4 1.5.2-.3.3-.8.4-1.2zm11.3 0h6.2v.6c-1.8 0-2 .4-2 2.6v4c0 2.2.3 2.6 2 2.6v.6h-6.2v-.6c1.7 0 2-.4 2-2.6v-1.8h-5.5v1.8c0 2.2.3 2.6 2 2.6v.6H110v-.6c1.8 0 2-.4 2-2.6v-4c0-2.2-.3-2.6-2-2.6v-.6h6.3v.6c-1.8 0-2 .4-2 2.6v1.2h5.5v-1.2c0-2.2-.3-2.6-2-2.6v-.6zm18 0h.6v4.3h-.6c-.5-2.3-1.8-3.7-3.7-3.7-2.8 0-3.6 2.6-3.6 4.7s.8 4.7 3.6 4.7c1.9 0 3.2-1.4 3.7-3.7h.6v4.3h-.6c-.1-.4-.3-.9-.4-1.1-.8.8-2.2 1.5-3.4 1.5-3.3 0-6-2.5-6-5.7 0-3.1 2.7-5.6 6-5.6 1.2 0 2.6.6 3.4 1.5.1-.3.2-.8.4-1.2zm10-.4c-3.5 0-6.3 2.5-6.3 5.6 0 3.1 2.8 5.7 6.3 5.7s6.3-2.5 6.3-5.7c0-3-2.9-5.6-6.3-5.6zm0 10.3c-2.9 0-3.9-2.6-3.9-4.7 0-2 1-4.7 3.9-4.7s3.9 2.6 3.9 4.7-1 4.7-3.9 4.7zm19.5-9.9h3.8v.6c-1.8 0-2 .4-2 2.6v4c0 2.2.3 2.6 2 2.6v.6h-6v-.6c1.8 0 2-.4 2-2.6V36l-3.8 8.2h-.5L157 36v4.5c0 2.2.3 2.6 2 2.6v.6h-5.1v-.6c1.8 0 2-.4 2-2.6v-4c0-2.2-.3-2.6-2-2.6v-.6h3.9l3.7 8 3.8-8zm14.7 4.8c.6-.5.9-1.2.9-2 0-1.5-1.3-2.7-3.8-2.7h-5.6v.6c1.8 0 2 .4 2 2.6v4c0 2.2-.3 2.6-2 2.6v.6h6.1c2.8 0 4.2-1.4 4.2-3 .1-1.2-.6-2.2-1.8-2.7zm-4.2-3.8h1.3c1.2 0 1.7.8 1.7 1.8 0 .9-.5 1.7-1.7 1.7h-1.3v-3.5zm1.8 8.5h-.4c-1.3 0-1.4-.3-1.4-1.6v-2.4h1.9c1.4 0 2 .9 2 2s-.7 2-2.1 2zm15.6-1.9h.5l-.2 3h-9.9v-.6c1.8 0 2-.4 2-2.6v-4c0-2.2-.3-2.6-2-2.6v-.6h9.3l.2 3h-.5l-.2-.6c-.3-1-.6-1.4-2.9-1.4h-1.7V38c2.5 0 2.6-.2 2.6-1.9h.6v4.7h-.6c0-1.6-.2-1.9-2.6-1.9v1.4c0 2.2.3 2.6 1.9 2.6h.4c2.2 0 2.6-.4 2.9-1.4l.2-.6zm11.2 0-1.4-1.6c2-.3 3-1.6 3-3 0-1.7-1.5-3.1-4.2-3.1h-5.5v.6c1.8 0 2 .4 2 2.6v4c0 2.2-.3 2.6-2 2.6v.6h6.3V43c-1.8 0-2-.4-2-2.6v-1.1h.5l3.5 4.4h3.5v-.6c-1.5-.1-2.4-.8-3.7-2.2zm-4-2.4v-4.2h1.3c1.4 0 2 1 2 2.1s-.6 2.1-2 2.1h-1.3zM7.2 0c4.9 5.9 9.6 12.3 12.6 19.4 2.9 6.8 3.4 13.4.8 20.4 0 0-2.8 6.8-8.9 3.1 3.1 1.3 7.7-1.4 6.2-6.9-1.4-5.5-9.5-2.7-9.5-2.7C19.8 18.8 7.2 0 7.2 0zm5.9 4.3s30.2 15.6 20.7 36.6c0 0-2.5-5-12.9 4.3.1 0 14.9-15.4-7.8-40.9zm26.8 40c-.4 4.2 3 4.8 3 4.8s-5.8 5.3-7.6 5.6c-1.6.3-5.6.9-6.1-1.9-.1-1.3.8-2.2 1.8-2.8 1-.6 2.9-1.4 4.1-.8.3.2.5.5.5.9 0 .7-.7.8-1.1 1.2 2.1-2-3.5-1.3-3.1.9.4 2.2 4.3.3 4.3.3 5.9-3.7.7-7.9-6.3-3.2-6.7 4.5-1.1 8-1.1 8-14.7 5.8-25.9 0-27.9-7.5-1.9-7.5 3-10.8 3-10.8 8-4.9 9.7 1.9 9.7 1.9-.4-.8-1.2-1.5-2-1.8-2.4-1-5.5 0-6.9 2.2-1.9 3-.3 7.5 2.6 9.2 1.3.8 2.6 1.5 4.1 1.8 2.9.4 5.6.5 8.4-.1 6.2-1.3 11.9-4.7 16.8-8.6 0 0 6.2-5.4 7.3-6.5.1-.2-3.2 3.6-3.5 7.2z"/>
</svg>
