<svg xmlns="http://www.w3.org/2000/svg" fill="none" viewBox="0 0 123 57">
  <title>Precision Sails</title>
  <g clip-path="url(#clip0)">
    <path fill="#000" d="M2.02 34.82c0-3.04 0-3.6-.04-4.24-.039-.68-.2-1-.86-1.141a4.127 4.127 0 00-.78-.06c-.22 0-.34-.04-.34-.18 0-.14.14-.18.44-.18 1.06 0 2.32.06 2.88.06.821 0 1.981-.06 2.9-.06 2.5 0 3.4.84 3.721 1.14a3.475 3.475 0 011 2.382 4.708 4.708 0 01-4.921 4.84c-.14.004-.28-.003-.42-.02-.1-.02-.24-.04-.24-.18 0-.16.14-.22.56-.22a3.15 3.15 0 002.681-3.3 3.852 3.852 0 00-1.18-3 2.97 2.97 0 00-2-.78 2.826 2.826 0 00-.78.08c-.1.04-.161.16-.161.38v8c0 1.842 0 3.422.1 4.283.061.559.181 1 .781 1.08.338.047.679.074 1.02.08.22 0 .32.059.32.16 0 .14-.16.2-.38.2-1.32 0-2.58-.06-3.1-.06-.46 0-1.72.06-2.52.06-.26 0-.401-.06-.401-.2 0-.1.08-.16.32-.16.242 0 .484-.027.72-.08.4-.08.5-.521.58-1.1.1-.84.1-2.42.1-4.261V34.82zM15.3 34.82c0-3.04 0-3.6-.04-4.24-.04-.68-.2-1-.86-1.141a4.137 4.137 0 00-.78-.06c-.22 0-.34-.04-.34-.18 0-.14.14-.18.44-.18 1.06 0 2.32.06 2.74.06.68 0 2.2-.06 2.82-.06a6.391 6.391 0 013.681.86 3.461 3.461 0 011.36 2.74c0 1.48-.62 2.842-2.64 4.482 1.78 2.24 3.16 4.02 4.341 5.26a3.978 3.978 0 002.24 1.36c.185.038.372.058.56.062.161 0 .241.059.241.16 0 .159-.14.2-.38.2h-1.9a4.053 4.053 0 01-2.14-.38 9.633 9.633 0 01-2.74-2.94c-.8-1.1-1.72-2.461-1.982-2.761a.416.416 0 00-.359-.14l-1.742-.04c-.1 0-.159.04-.159.16v.28c0 1.86 0 3.44.1 4.28.06.58.18 1.022.78 1.1.326.045.653.072.981.08.16 0 .24.06.24.16 0 .14-.14.2-.4.2-1.162 0-2.642-.058-2.942-.058-.38 0-1.64.059-2.44.059-.26 0-.4-.06-.4-.2 0-.1.08-.16.32-.16.242 0 .483-.027.72-.08.4-.08.5-.521.58-1.1.1-.84.1-2.42.1-4.261V34.82zm2.36 1.584c0 .22.04.3.18.36a5.28 5.28 0 001.521.2c.5.07 1.006-.052 1.42-.341a3.523 3.523 0 001.18-3c0-2.841-1.88-3.661-3.06-3.661a4.398 4.398 0 00-1.06.08c-.14.04-.18.12-.18.28v6.082z"></path>
    <path fill="#000" d="M30.58 34.82c0-3.04 0-3.6-.04-4.24-.04-.68-.2-1-.86-1.141a4.128 4.128 0 00-.78-.06c-.22 0-.34-.04-.34-.18 0-.14.14-.18.44-.18.54 0 1.12.02 1.62.02.52.02.98.04 1.26.04.64 0 4.622 0 5-.02.29-.024.576-.065.86-.12a1.96 1.96 0 01.322-.08c.1 0 .119.08.119.18-.076.431-.13.865-.16 1.3-.02.2-.06 1.08-.1 1.32-.018.1-.06.222-.2.222s-.18-.1-.18-.281a2.124 2.124 0 00-.12-.72c-.14-.36-.34-.6-1.34-.72-.34-.04-2.44-.08-2.84-.08-.1 0-.14.059-.14.2v5.06c0 .14.02.22.14.22.44 0 2.74 0 3.2-.04a1.4 1.4 0 00.96-.3c.14-.158.22-.258.32-.258.08 0 .14.04.14.16s-.08.44-.16 1.46c-.02.4-.08 1.2-.08 1.34 0 .16 0 .38-.18.38a.161.161 0 01-.135-.044.158.158 0 01-.045-.135 5.32 5.32 0 00-.08-.721c-.1-.4-.38-.7-1.12-.78-.38-.04-2.361-.06-2.842-.06-.1 0-.12.08-.12.2v1.58c0 .68-.02 2.52 0 3.1.04 1.38.36 1.68 2.4 1.68a5.075 5.075 0 001.88-.24c.522-.24.762-.66.9-1.48.04-.22.08-.3.22-.3.16 0 .16.16.16.36a15.82 15.82 0 01-.258 2.22c-.141.52-.321.52-1.081.52-1.5 0-2.6-.04-3.46-.06a43.944 43.944 0 00-2.081-.06c-.22 0-.66 0-1.14.02-.46 0-.981.04-1.381.04-.26 0-.4-.06-.4-.2 0-.1.08-.16.32-.16.242 0 .483-.027.72-.08.4-.08.5-.521.58-1.1.1-.84.1-2.42.1-4.261l.002-3.52zM43.699 42.242a7.54 7.54 0 01-2.48-5.9 7.529 7.529 0 012.34-5.481 8.728 8.728 0 016.321-2.121c.97-.005 1.94.062 2.9.2.76.1 1.4.28 2 .34.22.02.3.12.3.24 0 .16-.059.4-.1 1.1-.04.66-.02 1.76-.06 2.16-.02.3-.06.46-.24.46-.16 0-.2-.16-.2-.44a2.86 2.86 0 00-.781-1.84 5.96 5.96 0 00-4.06-1.241 5.217 5.217 0 00-3.76 1.24 6.682 6.682 0 00-1.842 5.182c0 4.76 3.621 7.12 6.3 7.12 1.78 0 2.86-.2 3.66-1.12.323-.383.556-.834.681-1.32.059-.32.1-.4.26-.4.139 0 .18.14.18.3-.084.897-.231 1.786-.44 2.662a.71.71 0 01-.521.58 11.586 11.586 0 01-3.6.46 10.001 10.001 0 01-6.858-2.181zM59.577 34.82c0-3.04 0-3.6-.04-4.24-.039-.68-.239-1.021-.679-1.12a2.798 2.798 0 00-.72-.08c-.2 0-.32-.04-.32-.2 0-.12.16-.16.48-.16.76 0 2.02.06 2.6.06.5 0 1.68-.06 2.44-.06.26 0 .42.04.42.16 0 .16-.12.2-.32.2a3.366 3.366 0 00-.6.059c-.54.1-.7.44-.74 1.14-.039.64-.039 1.2-.039 4.242v3.52c0 1.94 0 3.52.08 4.38.06.54.2.9.8.982.337.047.678.074 1.02.08.22 0 .318.059.318.16 0 .14-.16.2-.379.2-1.32 0-2.58-.06-3.122-.06-.459 0-1.719.06-2.52.06-.26 0-.4-.06-.4-.2 0-.1.08-.16.32-.16.242 0 .484-.027.72-.08.4-.08.52-.42.58-1 .1-.841.1-2.421.1-4.362l.001-3.52zM67.698 43.904c-.32-.141-.38-.24-.38-.681 0-1.1.082-2.3.1-2.62.02-.3.08-.52.24-.52.18 0 .2.179.2.34.018.346.079.688.18 1.02a2.757 2.757 0 002.86 2.02 2.432 2.432 0 002.68-2.28c0-.98-.3-1.9-1.96-3.2l-.92-.72c-2.2-1.72-2.96-3.121-2.96-4.741 0-2.2 1.84-3.781 4.621-3.781a9.642 9.642 0 012.66.34c.18.04.28.1.28.24 0 .26-.08.84-.08 2.4 0 .44-.06.6-.22.6-.14 0-.2-.12-.2-.36a2.424 2.424 0 00-.52-1.32 2.526 2.526 0 00-2.18-.98 2.105 2.105 0 00-2.38 2.06c0 .92.46 1.622 2.12 2.88l.56.422c2.42 1.82 3.28 3.2 3.28 5.1a4.031 4.031 0 01-1.88 3.48 5.777 5.777 0 01-3.18.82c-1 .04-1.996-.137-2.92-.52zM80.618 34.82c0-3.04 0-3.6-.04-4.24-.04-.68-.239-1.021-.679-1.12a2.798 2.798 0 00-.72-.08c-.2 0-.32-.04-.32-.2 0-.12.16-.16.48-.16.76 0 2.02.06 2.6.06.5 0 1.68-.06 2.44-.06.26 0 .42.04.42.16 0 .16-.12.2-.32.2a3.364 3.364 0 00-.6.059c-.54.1-.7.44-.74 1.14-.04.64-.04 1.2-.04 4.242v3.52c0 1.94 0 3.52.08 4.38.06.54.2.9.8.982.338.047.679.074 1.02.08.22 0 .32.059.32.16 0 .14-.16.2-.38.2-1.32 0-2.58-.06-3.12-.06-.46 0-1.72.06-2.522.06-.26 0-.4-.06-.4-.2 0-.1.08-.16.32-.16.243 0 .484-.027.72-.08.4-.08.52-.42.58-1 .1-.841.1-2.421.1-4.362l.001-3.52zM87.459 36.58c0-3.42 2.26-7.841 8.262-7.841 4.98 0 8.081 2.9 8.081 7.482a7.928 7.928 0 01-.547 3.206 7.915 7.915 0 01-7.734 4.994 7.619 7.619 0 01-8.062-7.84zm13.543.382c0-4.482-2.581-7.262-5.861-7.262-2.3 0-4.922 1.28-4.922 6.26 0 4.162 2.3 7.463 6.142 7.463 1.4 0 4.641-.68 4.641-6.461zM109.28 41.423c.04 1.559.3 2.08.7 2.219.337.104.688.152 1.04.14.219 0 .34.04.34.16 0 .16-.18.2-.46.2-1.3 0-2.1-.058-2.481-.058-.181 0-1.12.059-2.161.059-.26 0-.44-.02-.44-.2 0-.12.121-.16.321-.16.303.005.606-.029.9-.1.521-.16.6-.74.62-2.48l.181-11.782c0-.4.06-.681.26-.681.219 0 .4.26.74.62.24.26 3.28 3.46 6.2 6.362 1.361 1.36 4.061 4.24 4.4 4.56h.1l-.2-8.978c-.02-1.22-.2-1.6-.68-1.8a3.263 3.263 0 00-1.06-.12c-.241 0-.321-.06-.321-.18 0-.16.221-.181.521-.181 1.04 0 2 .06 2.421.06.22 0 .979-.06 1.96-.06.26 0 .46.02.46.18 0 .12-.12.18-.361.18a2.216 2.216 0 00-.6.06c-.561.16-.721.58-.74 1.7l-.22 12.622c0 .44-.08.62-.261.62-.22 0-.46-.22-.68-.44-1.26-1.2-3.821-3.82-5.9-5.881-2.181-2.16-4.4-4.6-4.761-4.98h-.06l.222 8.339zM46.573 54.263c.485.447 1.11.713 1.769.75.54 0 1.03-.28 1.03-.86 0-1.27-3.348-1.05-3.348-3.228a2.18 2.18 0 012.38-2.058 3.013 3.013 0 012.117.76l-.56 1.048a2.595 2.595 0 00-1.569-.62c-.6 0-1.07.35-1.07.85 0 1.26 3.34.95 3.34 3.219a2.12 2.12 0 01-2.34 2.079 3.433 3.433 0 01-2.449-.97l.7-.97zM56.883 54.263h-2.49l-.6 1.82h-1.328l2.5-7.1h1.349l2.5 7.1h-1.33l-.601-1.82zm-1.25-4.047s-.16.7-.3 1.1l-.63 1.9h1.86l-.63-1.9c-.13-.4-.28-1.1-.28-1.1h-.02zM61.123 48.987h1.29v7.1h-1.29v-7.1zM65.613 48.987h1.29v5.986h3.068v1.11h-4.358v-7.096zM72.562 54.263c.485.448 1.11.713 1.768.75.54 0 1.03-.28 1.03-.86 0-1.27-3.347-1.05-3.347-3.228a2.18 2.18 0 012.378-2.058 3.013 3.013 0 012.118.76l-.56 1.048a2.59 2.59 0 00-1.568-.62c-.6 0-1.07.35-1.07.85 0 1.26 3.34.95 3.34 3.219a2.123 2.123 0 01-2.34 2.079 3.44 3.44 0 01-2.45-.97l.701-.97zM55.395 13.355a.086.086 0 00-.039.051.084.084 0 00.01.065.086.086 0 00.1.038 18.643 18.643 0 015.5-1.078.853.853 0 00.67-.311c1.949-2.475 3-5.538 2.984-8.687a1.077 1.077 0 00-.157-.548A13.208 13.208 0 0062.53.617a.1.1 0 00-.14 0 .1.1 0 00-.029.083c.532 7.442-4.865 11.404-6.966 12.655z"></path>
    <path fill="#000" d="M57.291 16.004a.085.085 0 00-.038.114.082.082 0 00.092.045c2.062-.421 7.768-1.385 9.616.4a.497.497 0 00.712-.007l.007-.008c1.46-1.56 5.882-7.55-2.629-15.836a.1.1 0 00-.139-.01.1.1 0 00-.03.1c.334 1.802 1.494 10.768-7.591 15.202z"></path>
    <path fill="#000" d="M61.014 20.93a10.59 10.59 0 007.857-3.184.117.117 0 000-.167.118.118 0 00-.156-.006 10.161 10.161 0 01-6.89 2.4 10.24 10.24 0 01-9.883-9.825 10.207 10.207 0 016.812-10 .076.076 0 00.044-.1.077.077 0 00-.088-.046 10.627 10.627 0 00-8.043 10.542A10.66 10.66 0 0061.014 20.93z"></path>
    <path fill="#000" d="M72.493 8.09a.108.108 0 00-.195-.02.108.108 0 00-.013.076A11.24 11.24 0 0161.26 21.563h-.2a11.286 11.286 0 01-11.044-11.2c-.002-.736.068-1.47.208-2.191a.086.086 0 00-.068-.1.085.085 0 00-.1.059 11.716 11.716 0 00-.512 3.352A11.764 11.764 0 0061.25 23.302h.027A11.733 11.733 0 0073.01 11.569a11.7 11.7 0 00-.517-3.478z"></path>
  </g>
  <defs>
    <clipPath id="clip0">
      <path fill="#fff" d="M0 0h122.643v56.206H0z"></path>
    </clipPath>
  </defs>
</svg>