<svg xmlns="http://www.w3.org/2000/svg" viewBox="0 0 160 87" xml:space="preserve">
  <path d="M52.3 71.1h2.1v4h3.8v-4h2.1v10h-2.1v-4h-3.8v4h-2.1zm19.8 5c0-1.7-1.2-3.1-2.8-3.1-1.7 0-2.8 1.4-2.8 3 0 1.7 1.2 3 2.8 3 1.7.2 2.8-1.2 2.8-2.9m-7.8 0c0-2.8 2.1-5 5-5s5 2.2 5 5c0 2.7-2.1 5-5 5s-5-2.2-5-5m16.9-3h-2.9v-2h8v2h-3v8h-2.1zm10.1-2h6.9v2h-4.9v2h4.3v2h-4.3v2.1h5v1.9h-7zm12 0h2.1v8h4.9v2h-7zm10 8.5 1.3-1.5c.9.7 1.9 1.2 3 1.2.9 0 1.5-.3 1.5-.9 0-.5-.3-.8-2-1.2-2-.5-3.4-1-3.4-3 0-1.8 1.5-2.9 3.5-2.9 1.5 0 2.7.4 3.8 1.2l-1.2 1.6c-.9-.6-1.8-1-2.6-1s-1.3.4-1.3.8c0 .6.4.8 2.2 1.3 2.1.5 3.2 1.2 3.2 2.9 0 1.9-1.5 3-3.7 3-1.6 0-3.1-.5-4.3-1.5m-79 6c0 .6-.3.7-1 .2-.9-.6-1.7-1.4-2.6-2.4-1.3-1.5-1.8-3.2-2-5.5-.5-7.1-.4-13.4.1-22.3l.2-2.9c-3.6 7.8-7.7 10.7-13.2 10.2C7.6 62.1.1 51.2 2.9 34c2.6-15.4 10-27.1 16.8-31.7C23.5-.4 27.5-.3 30.1 1c4.3 2.2 9.2 11.2 3.8 25.7-.4 1-.8 1-1.3.8-1.3-.7-3-3.3-2.9-4.6 0-.1.1-.3.2-.6.4-1.1 1.3-3.6 1.6-5.4 1.3-8-.3-19.1-9.8-11.1C16.6 10.4 11 19.9 8.6 33.2 6 47.4 9 58.3 16.7 59.4c5.9.9 11.6-9 12.6-16.3.3-2.2.7-4.8 1-6.1.1-.4.5-.5.8-.2 2.7 2.1 3.3 4.9 3.3 6.1-.1 13.8-2.2 27.3-.1 42.7M115.5 51c-2.4 5.3-3.4 4.5-3.8 3.5-1-3.2-.6-6.5.1-9.7 2.2-8.8 3.4-9.9 4-10.8 1.3.8 1.4 2.6 1.6 3.6.5 4.7-.3 9.1-1.9 13.4m-32.9-4.6c-.9 5.9-3.5 10.2-4.5 9.2-.9-.8-1.9-6.1-.9-10.8 1.8-9 3.7-10.4 3.7-10.4 2.3 2.1 2.9 3.8 1.7 12m-23.2 9.2c-1.6 0-1.3-7.2-.6-10.4 1.5-7.1 4-10.8 4-10.8 1.3.8 1.5 1.9 1.6 3.5 1 12.2-4.3 17.7-5 17.7M144 36c.4 3.7-1.9 9.3-5.2 11.8.5-5 .9-9.1 4.4-13.6.8.8.7 1.1.8 1.8m9.2 3.8c-.1.3-4.8 12.6-8.9 15.8-4.1 3.3-5 .9-5.2-2.8 9.3-6.2 10.8-17 5.9-20.4-1.8-1.3-2.9-1.2-5 1.3-4.1 5-5.5 10.5-5.8 17.9-.8.9-2 1.6-2.6 1.5-.9-.2-2.6-4.7-2.5-7.4.6-12.9 1.3-22 1.3-22.3 9.9-.6 21.9-1.5 24.6-1.8.2 0 .4-.3.2-.5-.4-.5-1.3-1.2-2.8-1.2-3.8-.2-12.1-.5-21.7-.1.1-2.3.2-7.2.1-8.1-.3-1.5-1.7-3-3.2-3.8-.2-.1-.4-.1-.5.2-.3.8-.7 4-1.4 11.6v.4c-4.5.3-8.3.8-12.8 1.5-.4.1-.6.6-.3.9 1.3 1.3 2.8 1.8 4.5 1.8 1.1 0 3.9-.2 8.4-.5 0 4.8-.5 12 0 23.6 0 0-.8 4.6-2.5 6.4-1 1.1-2.1 1.4-2.2-.2-.2-6.8.5-12.8 1-17.5.2-1.5.4-3.2-.8-4.2-.4-.3-.7-.6-1.1-.8-.2-.1-.5-.1-.6.1-.4.5-1 1.6-1.2 1.7-.2-.2-1.1-.8-1.4-1-1.3-1.1-2.7-1.3-4.2.9-1.3 1.9-2.3 4-3.2 6.1-1.5 3.7-3.7 9.8-4.2 11-.6 1.6-1.2 2.4-3.2-.3 0 0 2.1-13.2 1.3-15.8-.3-1.1-.9-2.1-1.6-2.9-.7-.8-.9-.1-1 .2-.8 2.7-1.1 10.9-2 18.1 0 0-.4 2-.8 2.9-1.2 2.6-4-2.6-4-2.6.7-5.5 1.2-15.4 1.2-17 0-2.1-.4-3.3-1.9-4.4-.2-.1-.5 0-.5.2-1.1 4.2-2.6 12.1-2.4 22.2 0 0-.6 2.4-1.3 3.5-.6 1-1.8.7-2.2.5-.6-.4-.3-8.9.2-18.3.1-2.6.5-12.1 1.1-21 .5-7.8-2.4-8.9-3.3-9.2-.2 0-.2 0-.3.1-.4 1-.7 8.5-.8 9.7-.2 3.2-.4 16.2-.5 16.9-3.8-3.1-4.4-1.6-5.4-.3-1.5 1.9-2.6 4.7-3.4 7.3-1 3.3-3.3 11.6-4.3 13.6-.3.7-.8 1.7-1.5.1-1.1-2.7-.2-14.2.2-17.6.3-2.9.1-3-1.7-4.7-.4-.3-.8 0-.9.2-.2.3-.6 1.1-1 1.8 0 0-1-.7-1.8-1.1-1.3-.7-2.5-1.1-3.8 1-1.4 2.1-2.6 4.3-3.5 6.7-.3.8-1.9 6.3-2.5 8.3-.4 1.3-3 7.7-4.6 7.6-.5 0-.5-1-.6-1.5-.2-4 2.2-11.1 2.8-15 .3-1.7.6-3.5.6-5.2 0-1.3-.7-2.3-1.8-3.1-.2-.2-.5-.1-.7.1-.9 1.3-1.7 2.6-2.7 3.7-1 1.1-2.1 2.4-4.1 2 .1-.5-.1-8.3-2.1-7.7-1.2.3-2.1 1.4-1.7 7.9 0 .6.1 3.1 1.7 3.6 0 0-1 6-1.8 8.9-.6 2.2-2.1 6-3 8.1-.2.4-.5 1.2-.7 1.6-.1.3 0 .4.2.3 1.6-.8 2.3-1.3 3.2-2.3 1.3-1.6 4.4-11.1 4-16.8 0 0 .9-.3 2.7-1.6.7-.5 1.8-1.3 2.2-1.6v.7c-.1 3.6-1.9 10.4-2.3 13.9-.3 3 .5 5.7 3.5 7.4 1.3.7 2.4.8 3.5-.8.8-1.2 1.3-2.6 2.3-4.9.1.9.4 1.6.7 2.3.7 1.5 1.5 2.4 2.9 3.3 1.2.8 2.1.4 2.6 0 1.9-1.8 3.7-4.9 4.2-6.3 1.7 3.8 4.3 7.7 6.2 4.4 1-1.7 1.4-2.8 1.8-3.5.3.6.7 2.6 3.4 5 1.9 1.7 2.8 1.7 3.9.1.9-1.4 2-3.6 2.5-5 1.5 2 2.7 3.4 4.6 4.5 1 .5 1.8.6 3.2-1.5.6-.8 1.5-2.4 1.8-3.1 1 1.5 2.3 3 3.8 4.2 1 .9 2.2 1.1 3.3-1.1.4-.7 1.3-3.2 1.5-4.2.4.5.4.6.7.9.6.6 1.1 1.3 1.8 1.9 1 .8 1.7.7 2.5-.4.4-.5.7-1.1 1.1-1.7.3.5 1.9 3.8 4.3 5.6.9.7 1.7.6 2.4-.2.9-1.1 1.9-2.6 3.1-5.3.9 1.3 3 3.9 4.6 4.7 0 0 1 .6 2.1-.4 1.5-1.4 3.5-4.8 3.7-5.2.6 1.7 1.6 3.8 3.4 4.7 1.8.9 4.6-2 4.8-2.2.5 1 1.3 2.2 2.8 3.3 4.4 3.3 8.3 1.7 11.2-2.5 2.2-3.2 3-4.7 4.3-9 .8-2.6.5-5.5 0-7.1.3-.1 0 0-.1.3m1.1 17.8c0-.3.1-.7.2-1 .1-.3.3-.6.5-.8s.5-.4.8-.5.6-.2 1-.2.7.1 1 .2.6.3.8.5.4.5.5.8c.1.3.2.6.2 1 0 .3-.1.7-.2 1s-.3.6-.5.8-.5.4-.8.5c-.3.1-.6.2-1 .2s-.7-.1-1-.2c-.3-.1-.6-.3-.8-.5s-.4-.5-.5-.8-.2-.7-.2-1zm.4 0c0 .3.1.6.2.8.1.3.3.5.4.7s.4.3.7.5c.3.1.5.2.8.2s.6-.1.8-.2c.3-.1.5-.3.7-.5s.3-.4.4-.7c.1-.3.2-.5.2-.8 0-.3-.1-.6-.2-.8-.1-.3-.3-.5-.4-.7s-.4-.3-.7-.4c-.3-.1-.5-.2-.8-.2s-.6.1-.8.2c-.3.1-.5.3-.7.4s-.3.4-.4.7c-.2.2-.2.5-.2.8zm1.1-1.4h1.4c.1 0 .2.1.3.1.1.1.2.1.2.3.1.1.1.2.1.4s-.1.4-.2.5c-.1.1-.3.2-.5.3l.8 1.2h-.6l-.7-1.2h-.4V59h-.5v-2.8zm.9 1.2c.1 0 .3 0 .4-.1s.2-.2.2-.3c0-.2-.1-.3-.2-.3-.1-.1-.2-.1-.4-.1h-.5v.8h.5z" fill-rule="evenodd" clip-rule="evenodd"/>
</svg>
