<svg xmlns="http://www.w3.org/2000/svg" viewBox="0 0 50 50" xml:space="preserve">
  <path d="M14.8 44.9c-6.1 0-11.1-1.3-13.7-2.7-.4-.2-.5-.8-.3-1.1.1-.2.4-.4.6-.4 4.6-.3 9.1-1.5 13.1-3.7-3.6-1-7.4-3.6-8.1-7-.1-.4.2-.9.6-1h.4c.3.1.7.1 1 .1-3.7-2.3-6-6.2-6.1-10.5 0-.5.3-.8.8-.9.2 0 .5.1.6.2l1.2.9c-1.6-3.4-1.8-7.2-.5-10.7.2-.4.6-.6 1.1-.5.3.4.4.4.5.5 5.9 6.9 14.2 10 18.5 9.9-.1-.6-.2-1.2-.2-1.8C24.3 10.6 28.8 6 34.5 6c2.7.1 5.3 1.1 7.4 2.8.6-.1 1.1-.3 1.7-.5 1-.3 2-.7 3-1.3.4-.2.9-.1 1.1.3.1.3.1.6 0 .8-.9 1.4-2 2.7-3.1 3.9 1.3-.3 2.6-.7 3.8-1.1.4-.2.9 0 1.1.4.1.3.1.6-.1.8-1.2 1.6-2.5 2.9-4.1 4.1-.1 4.1-3.2 21.8-17.8 26.8h-.1c-4.1 1.3-8.3 1.9-12.6 1.9zM5 42c7.2 1.9 14.9 1.7 22-.5 14.1-4.9 16.7-23 16.6-25.5 0-.3.1-.5.3-.7.7-.5 1.5-1.1 2.1-1.8-1.3.4-2.6.6-2.9.3-.1-.1-.1-.2-.2-.3-.1-.3-.3-.6-.4-.9-.2-.4-.1-.8.3-1 .5-.5 1.1-1.1 1.5-1.7H44c-.7.3-1.5.5-2.3.6-.3.1-.6 0-.8-.3-1-1.2-4-2.6-6.4-2.6-4.7 0-8.5 3.8-8.5 8.5 0 .8.1 1.6.3 2.4.1.4-.1.9-.6 1h-.1c-4.1.7-13.1-2.1-19.9-9.2-1 4.1.5 8.8 2.9 10.7.3.3.4.8 0 1.2-.2.2-.6.3-.9.2-1.2-.5-2.3-1.2-3.4-1.9.8 3.6 3.3 6.6 7.2 8.3.4.2.6.7.4 1.1-.1.2-.3.4-.5.4-.9.3-1.9.4-2.9.4 1.3 2.6 5.1 4.6 8.2 4.9.5 0 .8.5.7.9 0 .2-.1.4-.2.5-1.8 1.9-7 4.1-12.2 5zM3.3 18.7"/>
</svg>
